G04 DipTrace 3.2.0.1*
G04 BottomSilk.GBO*
%MOIN*%
G04 #@! TF.FileFunction,Legend,Bot*
G04 #@! TF.Part,Single*
%ADD24C,0.006*%
%ADD57C,0.00772*%
%ADD58C,0.006176*%
%ADD59C,0.032808*%
%ADD60C,0.026247*%
%FSLAX26Y26*%
G04*
G70*
G90*
G75*
G01*
G04 BotSilk*
%LPD*%
X1501243Y183749D2*
D24*
X1391237D1*
X1501243Y103749D2*
G03X1511240Y113749I5J9992D01*
G01*
X1381240D2*
G03X1391237Y103749I9992J-8D01*
G01*
X1381240Y173749D2*
G02X1391237Y183749I9992J8D01*
G01*
X1501243D2*
G02X1511240Y173749I5J-9992D01*
G01*
Y113749D1*
X1381240Y173749D2*
Y113749D1*
X1391237Y103749D2*
X1501243D1*
X1868737Y41251D2*
X1978743D1*
X1868737Y121251D2*
G03X1858740Y111251I-5J-9992D01*
G01*
X1988740D2*
G03X1978743Y121251I-9992J8D01*
G01*
X1988740Y51251D2*
G02X1978743Y41251I-9992J-8D01*
G01*
X1868737D2*
G02X1858740Y51251I-5J9992D01*
G01*
Y111251D1*
X1988740Y51251D2*
Y111251D1*
X1978743Y121251D2*
X1868737D1*
X2730353Y677354D2*
D57*
X2732730Y682107D1*
X2737538Y686915D1*
X2742292Y689292D1*
X2751853D1*
X2756662Y686915D1*
X2761415Y682107D1*
X2763847Y677354D1*
X2766223Y670169D1*
Y658175D1*
X2763847Y651045D1*
X2761415Y646237D1*
X2756662Y641484D1*
X2751853Y639052D1*
X2742292D1*
X2737538Y641484D1*
X2732730Y646237D1*
X2730353Y651045D1*
Y658175D1*
X2742292D1*
X2683853Y689292D2*
X2714914D1*
Y639052D1*
X2683853D1*
X2714914Y665360D2*
X2695791D1*
X2619812Y689292D2*
Y639052D1*
X2603066D1*
X2595881Y641484D1*
X2591072Y646237D1*
X2588696Y651045D1*
X2586319Y658175D1*
Y670169D1*
X2588696Y677354D1*
X2591072Y682107D1*
X2595881Y686915D1*
X2603066Y689292D1*
X2619812D1*
X2535010Y677354D2*
X2537387Y682107D1*
X2542195Y686915D1*
X2546948Y689292D1*
X2556510D1*
X2561318Y686915D1*
X2566071Y682107D1*
X2568503Y677354D1*
X2570880Y670169D1*
Y658175D1*
X2568503Y651045D1*
X2566071Y646237D1*
X2561318Y641484D1*
X2556510Y639052D1*
X2546948D1*
X2542195Y641484D1*
X2537387Y646237D1*
X2535010Y651045D1*
X2519571Y664144D2*
X2491936D1*
X2476497Y689292D2*
Y639052D1*
X2459750D1*
X2452565Y641484D1*
X2447757Y646237D1*
X2445380Y651045D1*
X2443003Y658175D1*
Y670169D1*
X2445380Y677354D1*
X2447757Y682107D1*
X2452565Y686915D1*
X2459750Y689292D1*
X2476497D1*
X2391694Y677354D2*
X2394071Y682107D1*
X2398879Y686915D1*
X2403632Y689292D1*
X2413194D1*
X2418003Y686915D1*
X2422756Y682107D1*
X2425188Y677354D1*
X2427564Y670169D1*
Y658175D1*
X2425188Y651045D1*
X2422756Y646237D1*
X2418003Y641484D1*
X2413194Y639052D1*
X2403632D1*
X2398879Y641484D1*
X2394071Y646237D1*
X2391694Y651045D1*
X2296593Y689292D2*
X2327654D1*
Y639052D1*
X2296593D1*
X2327654Y665360D2*
X2308531D1*
X2281153Y689292D2*
Y639052D1*
X2247660Y689292D2*
Y639052D1*
X2281153Y665360D2*
X2247660D1*
X2232221Y689292D2*
Y639052D1*
X2198727Y689292D2*
Y639052D1*
X2232221Y665360D2*
X2198727D1*
X2183288Y689292D2*
Y639052D1*
X2166541D1*
X2159356Y641484D1*
X2154548Y646237D1*
X2152171Y651045D1*
X2149795Y658175D1*
Y670169D1*
X2152171Y677354D1*
X2154548Y682107D1*
X2159356Y686915D1*
X2166541Y689292D1*
X2183288D1*
X2119985Y689237D2*
X2127170Y686860D1*
X2131979Y679675D1*
X2134356Y667737D1*
Y660552D1*
X2131979Y648614D1*
X2127170Y641429D1*
X2119985Y639052D1*
X2115232D1*
X2108047Y641429D1*
X2103294Y648614D1*
X2100862Y660552D1*
Y667737D1*
X2103294Y679675D1*
X2108047Y686860D1*
X2115232Y689237D1*
X2119985D1*
X2103294Y679675D2*
X2131979Y648614D1*
X2082991Y677298D2*
Y679675D1*
X2080614Y684484D1*
X2078238Y686860D1*
X2073429Y689237D1*
X2063868D1*
X2059115Y686860D1*
X2056738Y684484D1*
X2054306Y679675D1*
Y674922D1*
X2056738Y670113D1*
X2061491Y662984D1*
X2085423Y639052D1*
X2051930D1*
X2012559D2*
Y689237D1*
X2036490Y655799D1*
X2000620D1*
X1946879Y639052D2*
X1966058Y689292D1*
X1985181Y639052D1*
X1977996Y655799D2*
X1954064D1*
X1917070Y689237D2*
X1924255Y686860D1*
X1929064Y679675D1*
X1931440Y667737D1*
Y660552D1*
X1929064Y648614D1*
X1924255Y641429D1*
X1917070Y639052D1*
X1912317D1*
X1905132Y641429D1*
X1900379Y648614D1*
X1897947Y660552D1*
Y667737D1*
X1900379Y679675D1*
X1905132Y686860D1*
X1912317Y689237D1*
X1917070D1*
X1900379Y679675D2*
X1929064Y648614D1*
X1844206Y639052D2*
X1863384Y689292D1*
X1882508Y639052D1*
X1875323Y655799D2*
X1851391D1*
X1804835Y639052D2*
Y689237D1*
X1828767Y655799D1*
X1792897D1*
X1777457Y679675D2*
X1772649Y682107D1*
X1765464Y689237D1*
Y639052D1*
X1750025Y664144D2*
X1722390D1*
X1706951Y689292D2*
Y639052D1*
X1673457Y689292D2*
Y639052D1*
X1706951Y665360D2*
X1673457D1*
X1658018Y689292D2*
X1624525D1*
X1658018Y639052D1*
X1624525D1*
X1368512Y141825D2*
X1340877D1*
X1308691Y166972D2*
Y116732D1*
X1325438Y166972D2*
X1291945D1*
X1276506Y150226D2*
Y116732D1*
Y135856D2*
X1274074Y143041D1*
X1269320Y147849D1*
X1264512Y150226D1*
X1257327D1*
X1241888Y166972D2*
X1239511Y164596D1*
X1237079Y166972D1*
X1239511Y169404D1*
X1241888Y166972D1*
X1239511Y150226D2*
Y116732D1*
X1221640Y150226D2*
Y116732D1*
Y140664D2*
X1214455Y147849D1*
X1209647Y150226D1*
X1202517D1*
X1197708Y147849D1*
X1195332Y140664D1*
Y116732D1*
Y140664D2*
X1188147Y147849D1*
X1183338Y150226D1*
X1176208D1*
X1171400Y147849D1*
X1168968Y140664D1*
Y116732D1*
X2019722Y188354D2*
Y145299D1*
X2041222Y166798D2*
X1998167D1*
X1965981Y191974D2*
Y141734D1*
X1982728Y191974D2*
X1949235D1*
X1933795Y175227D2*
Y141734D1*
Y160857D2*
X1931364Y168042D1*
X1926610Y172850D1*
X1921802Y175227D1*
X1914617D1*
X1899178Y191974D2*
X1896801Y189597D1*
X1894369Y191974D1*
X1896801Y194406D1*
X1899178Y191974D1*
X1896801Y175227D2*
Y141734D1*
X1878930Y175227D2*
Y141734D1*
Y165665D2*
X1871745Y172850D1*
X1866936Y175227D1*
X1859807D1*
X1854998Y172850D1*
X1852622Y165665D1*
Y141734D1*
Y165665D2*
X1845437Y172850D1*
X1840628Y175227D1*
X1833498D1*
X1828690Y172850D1*
X1826258Y165665D1*
Y141734D1*
X1821065Y74626D2*
D58*
Y51678D1*
X1830659Y68922D2*
X1811514Y57426D1*
Y68922D2*
X1830659Y57426D1*
X1799163Y83270D2*
Y43078D1*
X1785765D1*
X1780017Y45024D1*
X1776170Y48826D1*
X1774269Y52673D1*
X1772368Y58377D1*
Y67972D1*
X1774269Y73720D1*
X1776170Y77522D1*
X1780017Y81369D1*
X1785765Y83270D1*
X1799163D1*
X1750466Y69873D2*
X1754268Y67972D1*
X1758115Y64125D1*
X1760016Y58377D1*
Y54574D1*
X1758115Y48826D1*
X1754268Y45024D1*
X1750466Y43078D1*
X1744718D1*
X1740871Y45024D1*
X1737069Y48826D1*
X1735123Y54574D1*
Y58377D1*
X1737069Y64125D1*
X1740871Y67972D1*
X1744718Y69873D1*
X1750466D1*
X1722772D2*
Y43078D1*
Y62224D2*
X1717024Y67972D1*
X1713177Y69873D1*
X1707473D1*
X1703626Y67972D1*
X1701725Y62224D1*
Y43078D1*
X1679779Y83226D2*
X1689374Y71730D1*
X1677878Y81325D1*
X1679779Y83226D1*
X1659778Y83270D2*
Y50728D1*
X1657877Y45024D1*
X1654030Y43078D1*
X1650228D1*
X1665526Y69873D2*
X1652129D1*
X1577949Y64125D2*
X1579850Y67972D1*
X1585598Y69873D1*
X1591346D1*
X1597094Y67972D1*
X1598995Y64125D1*
X1597094Y60322D1*
X1593247Y58377D1*
X1583697Y56476D1*
X1579850Y54574D1*
X1577949Y50728D1*
Y48826D1*
X1579850Y45024D1*
X1585598Y43078D1*
X1591346D1*
X1597094Y45024D1*
X1598995Y48826D1*
X1556047Y69873D2*
X1559849Y67972D1*
X1563696Y64125D1*
X1565597Y58377D1*
Y54574D1*
X1563696Y48826D1*
X1559849Y45024D1*
X1556047Y43078D1*
X1550299D1*
X1546452Y45024D1*
X1542649Y48826D1*
X1540704Y54574D1*
Y58377D1*
X1542649Y64125D1*
X1546452Y67972D1*
X1550299Y69873D1*
X1556047D1*
X1528353Y83270D2*
Y43078D1*
X1493053Y83270D2*
Y43078D1*
Y64125D2*
X1496856Y67972D1*
X1500703Y69873D1*
X1506451D1*
X1510253Y67972D1*
X1514100Y64125D1*
X1516001Y58377D1*
Y54574D1*
X1514100Y48826D1*
X1510253Y45024D1*
X1506451Y43078D1*
X1500703D1*
X1496856Y45024D1*
X1493053Y48826D1*
X1480702Y58377D2*
X1457754D1*
Y62224D1*
X1459655Y66070D1*
X1461557Y67972D1*
X1465403Y69873D1*
X1471151D1*
X1474954Y67972D1*
X1478801Y64125D1*
X1480702Y58377D1*
Y54574D1*
X1478801Y48826D1*
X1474954Y45024D1*
X1471151Y43078D1*
X1465403D1*
X1461557Y45024D1*
X1457754Y48826D1*
X1445403Y69873D2*
Y43078D1*
Y58377D2*
X1443457Y64125D1*
X1439655Y67972D1*
X1435808Y69873D1*
X1430060D1*
X1378828Y83270D2*
Y43078D1*
X1361583D1*
X1355835Y45024D1*
X1353934Y46925D1*
X1352033Y50728D1*
Y56476D1*
X1353934Y60322D1*
X1355835Y62224D1*
X1361583Y64125D1*
X1355835Y66070D1*
X1353934Y67972D1*
X1352033Y71774D1*
Y75621D1*
X1353934Y79424D1*
X1355835Y81369D1*
X1361583Y83270D1*
X1378828D1*
Y64125D2*
X1361583D1*
X1330131Y69873D2*
X1333933Y67972D1*
X1337780Y64125D1*
X1339682Y58377D1*
Y54574D1*
X1337780Y48826D1*
X1333933Y45024D1*
X1330131Y43078D1*
X1324383D1*
X1320536Y45024D1*
X1316734Y48826D1*
X1314788Y54574D1*
Y58377D1*
X1316734Y64125D1*
X1320536Y67972D1*
X1324383Y69873D1*
X1330131D1*
X1296689Y83270D2*
Y50728D1*
X1294787Y45024D1*
X1290941Y43078D1*
X1287138D1*
X1302437Y69873D2*
X1289039D1*
X1274787Y83270D2*
Y43078D1*
Y62224D2*
X1269039Y67972D1*
X1265192Y69873D1*
X1259444D1*
X1255641Y67972D1*
X1253740Y62224D1*
Y43078D1*
X731424Y845209D2*
D59*
X602259D1*
X666759Y780709D2*
Y909874D1*
X742119Y1061546D2*
Y989916D1*
X677619Y982787D1*
X684749Y989916D1*
X692045Y1011471D1*
Y1032861D1*
X684749Y1054416D1*
X670490Y1068841D1*
X648934Y1075971D1*
X634675D1*
X613120Y1068841D1*
X598694Y1054416D1*
X591565Y1032861D1*
Y1011472D1*
X598694Y989916D1*
X605990Y982787D1*
X620250Y975491D1*
X693970Y212527D2*
X708230Y205397D1*
X722655Y190972D1*
X729785Y176712D1*
Y148027D1*
X722655Y133602D1*
X708230Y119342D1*
X693970Y112047D1*
X672415Y104917D1*
X636434D1*
X615045Y112047D1*
X600620Y119342D1*
X586360Y133602D1*
X579065Y148027D1*
Y176712D1*
X586360Y190972D1*
X600620Y205397D1*
X615045Y212527D1*
X636434D1*
Y176712D1*
X729785Y378624D2*
X579065D1*
X729785Y278144D1*
X579065D1*
X729785Y444240D2*
X579065D1*
Y494480D1*
X586360Y516035D1*
X600620Y530461D1*
X615045Y537591D1*
X636434Y544720D1*
X672415D1*
X693970Y537591D1*
X708230Y530461D1*
X722655Y516035D1*
X729785Y494480D1*
Y444240D1*
X3438833Y1246230D2*
D60*
X3432996Y1234689D1*
X3415885Y1217445D1*
X3536328D1*
X3415885Y1136300D2*
X3421589Y1153411D1*
X3432996Y1159248D1*
X3444537D1*
X3455944Y1153411D1*
X3461781Y1142004D1*
X3467485Y1119056D1*
X3473188Y1101812D1*
X3484729Y1090404D1*
X3496136Y1084700D1*
X3513380D1*
X3524788Y1090404D1*
X3530624Y1096108D1*
X3536328Y1113352D1*
Y1136300D1*
X3530624Y1153411D1*
X3524788Y1159248D1*
X3513380Y1164952D1*
X3496136D1*
X3484729Y1159248D1*
X3473188Y1147708D1*
X3467485Y1130596D1*
X3461781Y1107648D1*
X3455944Y1096108D1*
X3444537Y1090404D1*
X3432996D1*
X3421589Y1096108D1*
X3415885Y1113352D1*
Y1136300D1*
X3476107Y1032207D2*
Y965884D1*
X3536328Y890442D2*
X3415885Y833006D1*
Y913390D1*
Y711669D2*
Y768972D1*
X3467485Y774676D1*
X3461781Y768972D1*
X3455944Y751728D1*
Y734617D1*
X3461781Y717373D1*
X3473188Y705833D1*
X3490432Y700129D1*
X3501840D1*
X3519084Y705833D1*
X3530625Y717373D1*
X3536328Y734617D1*
Y751728D1*
X3530625Y768972D1*
X3524788Y774676D1*
X3513380Y780513D1*
X3444404Y428141D2*
X3432996Y433845D1*
X3421456Y445385D1*
X3415752Y456792D1*
Y479740D1*
X3421456Y491281D1*
X3432996Y502688D1*
X3444404Y508525D1*
X3461648Y514229D1*
X3490432D1*
X3507544Y508525D1*
X3519084Y502688D1*
X3530492Y491281D1*
X3536328Y479740D1*
Y456792D1*
X3530492Y445385D1*
X3519084Y433845D1*
X3507544Y428141D1*
X3490433D1*
Y456792D1*
X3415752Y295263D2*
X3536328D1*
X3415752Y375647D1*
X3536328D1*
X3415752Y242770D2*
X3536328D1*
Y202578D1*
X3530492Y185334D1*
X3519084Y173794D1*
X3507544Y168090D1*
X3490432Y162386D1*
X3461648D1*
X3444404Y168090D1*
X3432996Y173794D1*
X3421456Y185334D1*
X3415752Y202578D1*
Y242770D1*
X2486360Y1220772D2*
D58*
Y1180580D1*
X2472963D1*
X2467215Y1182525D1*
X2463368Y1186328D1*
X2461467Y1190174D1*
X2459566Y1195878D1*
Y1205473D1*
X2461467Y1211221D1*
X2463368Y1215024D1*
X2467215Y1218870D1*
X2472963Y1220772D1*
X2486360D1*
X2447214Y1195878D2*
X2424266D1*
Y1199725D1*
X2426168Y1203572D1*
X2428069Y1205473D1*
X2431916Y1207374D1*
X2437664D1*
X2441466Y1205473D1*
X2445313Y1201626D1*
X2447214Y1195878D1*
Y1192076D1*
X2445313Y1186328D1*
X2441466Y1182525D1*
X2437664Y1180580D1*
X2431916D1*
X2428069Y1182525D1*
X2424266Y1186328D1*
X2390868Y1201626D2*
X2392770Y1205473D1*
X2398518Y1207374D1*
X2404266D1*
X2410014Y1205473D1*
X2411915Y1201626D1*
X2410014Y1197824D1*
X2406167Y1195878D1*
X2396616Y1193977D1*
X2392770Y1192076D1*
X2390868Y1188229D1*
Y1186328D1*
X2392770Y1182525D1*
X2398518Y1180580D1*
X2404266D1*
X2410014Y1182525D1*
X2411915Y1186328D1*
X2378517Y1220772D2*
X2376616Y1218870D1*
X2374670Y1220772D1*
X2376616Y1222717D1*
X2378517Y1220772D1*
X2376616Y1207374D2*
Y1180580D1*
X2339371Y1205473D2*
Y1174832D1*
X2341272Y1169128D1*
X2343173Y1167182D1*
X2347020Y1165281D1*
X2352768D1*
X2356571Y1167182D1*
X2339371Y1199725D2*
X2343173Y1203528D1*
X2347020Y1205473D1*
X2352768D1*
X2356571Y1203528D1*
X2360418Y1199725D1*
X2362319Y1193977D1*
Y1190130D1*
X2360418Y1184426D1*
X2356571Y1180580D1*
X2352768Y1178678D1*
X2347020D1*
X2343173Y1180580D1*
X2339371Y1184426D1*
X2327019Y1207374D2*
Y1180580D1*
Y1199725D2*
X2321271Y1205473D1*
X2317425Y1207374D1*
X2311721D1*
X2307874Y1205473D1*
X2305973Y1199725D1*
Y1180580D1*
X2293621Y1195878D2*
X2270674D1*
Y1199725D1*
X2272575Y1203572D1*
X2274476Y1205473D1*
X2278323Y1207374D1*
X2284071D1*
X2287873Y1205473D1*
X2291720Y1201626D1*
X2293621Y1195878D1*
Y1192076D1*
X2291720Y1186328D1*
X2287873Y1182525D1*
X2284071Y1180580D1*
X2278323D1*
X2274476Y1182525D1*
X2270674Y1186328D1*
X2235374Y1220772D2*
Y1180580D1*
Y1201626D2*
X2239177Y1205473D1*
X2243024Y1207374D1*
X2248772D1*
X2252574Y1205473D1*
X2256421Y1201626D1*
X2258322Y1195878D1*
Y1192076D1*
X2256421Y1186328D1*
X2252574Y1182525D1*
X2248772Y1180580D1*
X2243024D1*
X2239177Y1182525D1*
X2235374Y1186328D1*
X2184142Y1220772D2*
Y1180580D1*
X2166898D1*
X2161150Y1182525D1*
X2159249Y1184426D1*
X2157347Y1188229D1*
Y1193977D1*
X2159249Y1197824D1*
X2161150Y1199725D1*
X2166898Y1201626D1*
X2161150Y1203572D1*
X2159249Y1205473D1*
X2157347Y1209276D1*
Y1213122D1*
X2159249Y1216925D1*
X2161150Y1218870D1*
X2166898Y1220772D1*
X2184142D1*
Y1201626D2*
X2166898D1*
X2143051Y1207374D2*
X2131599Y1180580D1*
X2135401Y1172930D1*
X2139248Y1169084D1*
X2143051Y1167182D1*
X2144996D1*
X2120103Y1207374D2*
X2131599Y1180580D1*
X2038229D2*
X2053572Y1220772D1*
X2068870Y1180580D1*
X2063122Y1193977D2*
X2043977D1*
X2025878Y1220772D2*
Y1180580D1*
X2013526Y1195878D2*
X1990578D1*
Y1199725D1*
X1992480Y1203572D1*
X1994381Y1205473D1*
X1998228Y1207374D1*
X2003976D1*
X2007778Y1205473D1*
X2011625Y1201626D1*
X2013526Y1195878D1*
Y1192076D1*
X2011625Y1186328D1*
X2007778Y1182525D1*
X2003976Y1180580D1*
X1998228D1*
X1994381Y1182525D1*
X1990578Y1186328D1*
X1978227Y1207374D2*
X1957180Y1180580D1*
Y1207374D2*
X1978227Y1180580D1*
X1905948Y1220772D2*
X1896353Y1180580D1*
X1886803Y1220772D1*
X1877252Y1180580D1*
X1867657Y1220772D1*
X1845755Y1207374D2*
X1849558Y1205473D1*
X1853405Y1201626D1*
X1855306Y1195878D1*
Y1192076D1*
X1853405Y1186328D1*
X1849558Y1182525D1*
X1845755Y1180580D1*
X1840007D1*
X1836161Y1182525D1*
X1832358Y1186328D1*
X1830413Y1192076D1*
Y1195878D1*
X1832358Y1201626D1*
X1836161Y1205473D1*
X1840007Y1207374D1*
X1845755D1*
X1808511D2*
X1812313Y1205473D1*
X1816160Y1201626D1*
X1818061Y1195878D1*
Y1192076D1*
X1816160Y1186328D1*
X1812313Y1182525D1*
X1808511Y1180580D1*
X1802763D1*
X1798916Y1182525D1*
X1795113Y1186328D1*
X1793168Y1192076D1*
Y1195878D1*
X1795113Y1201626D1*
X1798916Y1205473D1*
X1802763Y1207374D1*
X1808511D1*
X1757868Y1220772D2*
Y1180580D1*
Y1201626D2*
X1761671Y1205473D1*
X1765518Y1207374D1*
X1771266D1*
X1775068Y1205473D1*
X1778915Y1201626D1*
X1780816Y1195878D1*
Y1192076D1*
X1778915Y1186328D1*
X1775068Y1182525D1*
X1771266Y1180580D1*
X1765518D1*
X1761671Y1182525D1*
X1757868Y1186328D1*
X1745517Y1207374D2*
Y1180580D1*
Y1199725D2*
X1739769Y1205473D1*
X1735922Y1207374D1*
X1730218D1*
X1726372Y1205473D1*
X1724470Y1199725D1*
Y1180580D1*
Y1199725D2*
X1718722Y1205473D1*
X1714876Y1207374D1*
X1709172D1*
X1705325Y1205473D1*
X1703380Y1199725D1*
Y1180580D1*
X1668080Y1207374D2*
Y1180580D1*
Y1201626D2*
X1671883Y1205473D1*
X1675730Y1207374D1*
X1681433D1*
X1685280Y1205473D1*
X1689083Y1201626D1*
X1691028Y1195878D1*
Y1192076D1*
X1689083Y1186328D1*
X1685280Y1182525D1*
X1681433Y1180580D1*
X1675730D1*
X1671883Y1182525D1*
X1668080Y1186328D1*
X1655729Y1207374D2*
Y1180580D1*
Y1199725D2*
X1649981Y1205473D1*
X1646134Y1207374D1*
X1640430D1*
X1636583Y1205473D1*
X1634682Y1199725D1*
Y1180580D1*
X1601284Y1201626D2*
X1603185Y1205473D1*
X1608933Y1207374D1*
X1614682D1*
X1620430Y1205473D1*
X1622331Y1201626D1*
X1620430Y1197824D1*
X1616583Y1195878D1*
X1607032Y1193977D1*
X1603185Y1192076D1*
X1601284Y1188229D1*
Y1186328D1*
X1603185Y1182525D1*
X1608933Y1180580D1*
X1614682D1*
X1620430Y1182525D1*
X1622331Y1186328D1*
X1588933Y1195878D2*
X1565985D1*
Y1199725D1*
X1567886Y1203572D1*
X1569787Y1205473D1*
X1573634Y1207374D1*
X1579382D1*
X1583185Y1205473D1*
X1587032Y1201626D1*
X1588933Y1195878D1*
Y1192076D1*
X1587032Y1186328D1*
X1583185Y1182525D1*
X1579382Y1180580D1*
X1573634D1*
X1569787Y1182525D1*
X1565985Y1186328D1*
X1551688Y1207374D2*
X1540236Y1180580D1*
X1544039Y1172930D1*
X1547885Y1169084D1*
X1551688Y1167182D1*
X1553633D1*
X1528740Y1207374D2*
X1540236Y1180580D1*
M02*
