M48
INCH
T01C0.0413
T02C0.062
T03C0.087
T04C0.0984
T05C0.1654
%
T01
X+024162Y+001187
X+023162Y+001187
X+022162Y+001187
X+021162Y+001187
X+017772Y+001344
X+015803Y+001344
X+016787Y+003313
X+004725Y+002795
X+002756Y+004173
X+004725Y+005551
X+002756Y+006929
X+004725Y+008307
X+002756Y+009685
X+004725Y+011062
X+002756Y+001417
T02
X+031700Y+009563
X+031700Y+006563
X+031700Y+003563
X+011700Y+005063
X+011700Y+006563
X+011700Y+008063
T03
X+011700Y+009563
X+011700Y+003563
T04
X+008725Y+006250
X+008725Y+008219
X+008725Y+009793
X+008725Y+011762
T05
X+037225Y+011313
X+037225Y+008313
X+037225Y+004687
X+037225Y+001687
T00
M30
