G04 DipTrace 3.2.0.1*
G04 TopMask.GTS*
%MOIN*%
G04 #@! TF.FileFunction,Soldermask,Top*
G04 #@! TF.Part,Single*
%AMOUTLINE0*
4,1,8,
0.030488,-0.012629,
0.012629,-0.030488,
-0.012629,-0.030488,
-0.030488,-0.012629,
-0.030488,0.012629,
-0.012629,0.030488,
0.012629,0.030488,
0.030488,0.012629,
0.030488,-0.012629,
0*%
%AMOUTLINE2*
4,1,20,
0.0,0.074835,
0.028382,0.071238,
0.054082,0.060763,
0.074635,0.04432,
0.087965,0.02339,
0.092596,0.0,
0.087965,-0.02339,
0.074635,-0.04432,
0.054082,-0.060763,
0.028382,-0.071238,
0.0,-0.074835,
-0.028382,-0.071238,
-0.054082,-0.060763,
-0.074635,-0.04432,
-0.087965,-0.02339,
-0.092596,0.0,
-0.087965,0.02339,
-0.074635,0.04432,
-0.054082,0.060763,
-0.028382,0.071238,
0.0,0.074835,
0*%
%ADD26R,0.063X0.046*%
%ADD27R,0.008X0.025*%
%ADD43C,0.070866*%
%ADD45C,0.157874*%
%ADD47C,0.096457*%
%ADD49C,0.125984*%
%ADD51C,0.244094*%
%ADD53C,0.074803*%
%ADD55R,0.074803X0.074803*%
%ADD65OUTLINE0*%
%ADD67OUTLINE2*%
%FSLAX26Y26*%
G04*
G70*
G90*
G75*
G01*
G04 TopMask*
%LPD*%
D55*
X2416240Y118749D3*
D53*
X2316240D3*
X2216240D3*
X2116240D3*
D51*
X3722491Y1131251D3*
Y831251D3*
Y468749D3*
Y168749D3*
D49*
X3169980Y956251D3*
Y656251D3*
Y356251D3*
D47*
X1169980Y656251D3*
Y506251D3*
Y806251D3*
D45*
Y956251D3*
Y356251D3*
D43*
X472491Y1106249D3*
X275640Y968454D3*
X472491Y830659D3*
X275640Y692864D3*
X472491Y555068D3*
X275640Y417273D3*
X472491Y279478D3*
X275640Y141682D3*
G36*
X1484720Y833246D2*
X1412720D1*
Y839252D1*
X1484720D1*
Y833246D1*
G37*
D26*
X1448720Y806249D3*
Y866249D3*
D27*
Y836249D3*
G36*
X1484720Y483248D2*
X1412720D1*
Y489254D1*
X1484720D1*
Y483248D1*
G37*
D26*
X1448720Y456251D3*
Y516251D3*
D27*
Y486251D3*
G36*
X3083491Y508248D2*
X3011491D1*
Y514254D1*
X3083491D1*
Y508248D1*
G37*
D26*
X3047491Y481251D3*
Y541251D3*
D27*
Y511251D3*
D65*
X1678740Y331251D3*
X1777165Y134400D3*
X1580315D3*
D67*
X872490Y625000D3*
Y821850D3*
Y979331D3*
Y1176181D3*
G36*
X3572490Y618751D2*
X3872490D1*
Y43749D1*
X3572490D1*
Y618751D1*
G37*
G36*
Y1256251D2*
X3872490D1*
Y693749D1*
X3572490D1*
Y1256251D1*
G37*
M02*
