G04 DipTrace 3.2.0.1*
G04 BottomSilk.GBO*
%MOIN*%
G04 #@! TF.FileFunction,Legend,Bot*
G04 #@! TF.Part,Single*
%ADD24C,0.006*%
%ADD57C,0.00772*%
%ADD58C,0.006176*%
%ADD59C,0.032808*%
%ADD60C,0.026247*%
%FSLAX26Y26*%
G04*
G70*
G90*
G75*
G01*
G04 BotSilk*
%LPD*%
X1501243Y183749D2*
D24*
X1391237D1*
X1501243Y103749D2*
G03X1511240Y113749I5J9992D01*
G01*
X1381240D2*
G03X1391237Y103749I9992J-8D01*
G01*
X1381240Y173749D2*
G02X1391237Y183749I9992J8D01*
G01*
X1501243D2*
G02X1511240Y173749I5J-9992D01*
G01*
Y113749D1*
X1381240Y173749D2*
Y113749D1*
X1391237Y103749D2*
X1501243D1*
X1868737Y41251D2*
X1978743D1*
X1868737Y121251D2*
G03X1858740Y111251I-5J-9992D01*
G01*
X1988740D2*
G03X1978743Y121251I-9992J8D01*
G01*
X1988740Y51251D2*
G02X1978743Y41251I-9992J-8D01*
G01*
X1868737D2*
G02X1858740Y51251I-5J9992D01*
G01*
Y111251D1*
X1988740Y51251D2*
Y111251D1*
X1978743Y121251D2*
X1868737D1*
X2730353Y677354D2*
D57*
X2732730Y682107D1*
X2737538Y686915D1*
X2742292Y689292D1*
X2751853D1*
X2756662Y686915D1*
X2761415Y682107D1*
X2763847Y677354D1*
X2766223Y670169D1*
Y658175D1*
X2763847Y651045D1*
X2761415Y646237D1*
X2756662Y641484D1*
X2751853Y639052D1*
X2742292D1*
X2737538Y641484D1*
X2732730Y646237D1*
X2730353Y651045D1*
Y658175D1*
X2742292D1*
X2683853Y689292D2*
X2714914D1*
Y639052D1*
X2683853D1*
X2714914Y665360D2*
X2695791D1*
X2619812Y689292D2*
Y639052D1*
X2603066D1*
X2595881Y641484D1*
X2591072Y646237D1*
X2588696Y651045D1*
X2586319Y658175D1*
Y670169D1*
X2588696Y677354D1*
X2591072Y682107D1*
X2595881Y686915D1*
X2603066Y689292D1*
X2619812D1*
X2535010Y677354D2*
X2537387Y682107D1*
X2542195Y686915D1*
X2546948Y689292D1*
X2556510D1*
X2561318Y686915D1*
X2566071Y682107D1*
X2568503Y677354D1*
X2570880Y670169D1*
Y658175D1*
X2568503Y651045D1*
X2566071Y646237D1*
X2561318Y641484D1*
X2556510Y639052D1*
X2546948D1*
X2542195Y641484D1*
X2537387Y646237D1*
X2535010Y651045D1*
X2519571Y664144D2*
X2491936D1*
X2476497Y689292D2*
Y639052D1*
X2459750D1*
X2452565Y641484D1*
X2447757Y646237D1*
X2445380Y651045D1*
X2443003Y658175D1*
Y670169D1*
X2445380Y677354D1*
X2447757Y682107D1*
X2452565Y686915D1*
X2459750Y689292D1*
X2476497D1*
X2391694Y677354D2*
X2394071Y682107D1*
X2398879Y686915D1*
X2403632Y689292D1*
X2413194D1*
X2418003Y686915D1*
X2422756Y682107D1*
X2425188Y677354D1*
X2427564Y670169D1*
Y658175D1*
X2425188Y651045D1*
X2422756Y646237D1*
X2418003Y641484D1*
X2413194Y639052D1*
X2403632D1*
X2398879Y641484D1*
X2394071Y646237D1*
X2391694Y651045D1*
X2296593Y689292D2*
X2327654D1*
Y639052D1*
X2296593D1*
X2327654Y665360D2*
X2308531D1*
X2281153Y689292D2*
Y639052D1*
X2247660Y689292D2*
Y639052D1*
X2281153Y665360D2*
X2247660D1*
X2232221Y689292D2*
Y639052D1*
X2198727Y689292D2*
Y639052D1*
X2232221Y665360D2*
X2198727D1*
X2183288Y689292D2*
Y639052D1*
X2166541D1*
X2159356Y641484D1*
X2154548Y646237D1*
X2152171Y651045D1*
X2149795Y658175D1*
Y670169D1*
X2152171Y677354D1*
X2154548Y682107D1*
X2159356Y686915D1*
X2166541Y689292D1*
X2183288D1*
X2119985Y689237D2*
X2127170Y686860D1*
X2131979Y679675D1*
X2134356Y667737D1*
Y660552D1*
X2131979Y648614D1*
X2127170Y641429D1*
X2119985Y639052D1*
X2115232D1*
X2108047Y641429D1*
X2103294Y648614D1*
X2100862Y660552D1*
Y667737D1*
X2103294Y679675D1*
X2108047Y686860D1*
X2115232Y689237D1*
X2119985D1*
X2103294Y679675D2*
X2131979Y648614D1*
X2082991Y677298D2*
Y679675D1*
X2080614Y684484D1*
X2078238Y686860D1*
X2073429Y689237D1*
X2063868D1*
X2059115Y686860D1*
X2056738Y684484D1*
X2054306Y679675D1*
Y674922D1*
X2056738Y670113D1*
X2061491Y662984D1*
X2085423Y639052D1*
X2051930D1*
X2012559D2*
Y689237D1*
X2036490Y655799D1*
X2000620D1*
X1946879Y639052D2*
X1966058Y689292D1*
X1985181Y639052D1*
X1977996Y655799D2*
X1954064D1*
X1917070Y689237D2*
X1924255Y686860D1*
X1929064Y679675D1*
X1931440Y667737D1*
Y660552D1*
X1929064Y648614D1*
X1924255Y641429D1*
X1917070Y639052D1*
X1912317D1*
X1905132Y641429D1*
X1900379Y648614D1*
X1897947Y660552D1*
Y667737D1*
X1900379Y679675D1*
X1905132Y686860D1*
X1912317Y689237D1*
X1917070D1*
X1900379Y679675D2*
X1929064Y648614D1*
X1844206Y639052D2*
X1863384Y689292D1*
X1882508Y639052D1*
X1875323Y655799D2*
X1851391D1*
X1804835Y639052D2*
Y689237D1*
X1828767Y655799D1*
X1792897D1*
X1777457Y679675D2*
X1772649Y682107D1*
X1765464Y689237D1*
Y639052D1*
X1750025Y664144D2*
X1722390D1*
X1706951Y689292D2*
Y639052D1*
X1673457Y689292D2*
Y639052D1*
X1706951Y665360D2*
X1673457D1*
X1658018Y689292D2*
X1624525D1*
X1658018Y639052D1*
X1624525D1*
X1368512Y141825D2*
X1340877D1*
X1308691Y166972D2*
Y116732D1*
X1325438Y166972D2*
X1291945D1*
X1276506Y150226D2*
Y116732D1*
Y135856D2*
X1274074Y143041D1*
X1269320Y147849D1*
X1264512Y150226D1*
X1257327D1*
X1241888Y166972D2*
X1239511Y164596D1*
X1237079Y166972D1*
X1239511Y169404D1*
X1241888Y166972D1*
X1239511Y150226D2*
Y116732D1*
X1221640Y150226D2*
Y116732D1*
Y140664D2*
X1214455Y147849D1*
X1209647Y150226D1*
X1202517D1*
X1197708Y147849D1*
X1195332Y140664D1*
Y116732D1*
Y140664D2*
X1188147Y147849D1*
X1183338Y150226D1*
X1176208D1*
X1171400Y147849D1*
X1168968Y140664D1*
Y116732D1*
X2019722Y188354D2*
Y145299D1*
X2041222Y166798D2*
X1998167D1*
X1965981Y191974D2*
Y141734D1*
X1982728Y191974D2*
X1949235D1*
X1933795Y175227D2*
Y141734D1*
Y160857D2*
X1931364Y168042D1*
X1926610Y172850D1*
X1921802Y175227D1*
X1914617D1*
X1899178Y191974D2*
X1896801Y189597D1*
X1894369Y191974D1*
X1896801Y194406D1*
X1899178Y191974D1*
X1896801Y175227D2*
Y141734D1*
X1878930Y175227D2*
Y141734D1*
Y165665D2*
X1871745Y172850D1*
X1866936Y175227D1*
X1859807D1*
X1854998Y172850D1*
X1852622Y165665D1*
Y141734D1*
Y165665D2*
X1845437Y172850D1*
X1840628Y175227D1*
X1833498D1*
X1828690Y172850D1*
X1826258Y165665D1*
Y141734D1*
X1821065Y74626D2*
D58*
Y51678D1*
X1830659Y68922D2*
X1811514Y57426D1*
Y68922D2*
X1830659Y57426D1*
X1799163Y83270D2*
Y43078D1*
X1785765D1*
X1780017Y45024D1*
X1776170Y48826D1*
X1774269Y52673D1*
X1772368Y58377D1*
Y67972D1*
X1774269Y73720D1*
X1776170Y77522D1*
X1780017Y81369D1*
X1785765Y83270D1*
X1799163D1*
X1750466Y69873D2*
X1754268Y67972D1*
X1758115Y64125D1*
X1760016Y58377D1*
Y54574D1*
X1758115Y48826D1*
X1754268Y45024D1*
X1750466Y43078D1*
X1744718D1*
X1740871Y45024D1*
X1737069Y48826D1*
X1735123Y54574D1*
Y58377D1*
X1737069Y64125D1*
X1740871Y67972D1*
X1744718Y69873D1*
X1750466D1*
X1722772D2*
Y43078D1*
Y62224D2*
X1717024Y67972D1*
X1713177Y69873D1*
X1707473D1*
X1703626Y67972D1*
X1701725Y62224D1*
Y43078D1*
X1679779Y83226D2*
X1689374Y71730D1*
X1677878Y81325D1*
X1679779Y83226D1*
X1659778Y83270D2*
Y50728D1*
X1657877Y45024D1*
X1654030Y43078D1*
X1650228D1*
X1665526Y69873D2*
X1652129D1*
X1577949Y64125D2*
X1579850Y67972D1*
X1585598Y69873D1*
X1591346D1*
X1597094Y67972D1*
X1598995Y64125D1*
X1597094Y60322D1*
X1593247Y58377D1*
X1583697Y56476D1*
X1579850Y54574D1*
X1577949Y50728D1*
Y48826D1*
X1579850Y45024D1*
X1585598Y43078D1*
X1591346D1*
X1597094Y45024D1*
X1598995Y48826D1*
X1556047Y69873D2*
X1559849Y67972D1*
X1563696Y64125D1*
X1565597Y58377D1*
Y54574D1*
X1563696Y48826D1*
X1559849Y45024D1*
X1556047Y43078D1*
X1550299D1*
X1546452Y45024D1*
X1542649Y48826D1*
X1540704Y54574D1*
Y58377D1*
X1542649Y64125D1*
X1546452Y67972D1*
X1550299Y69873D1*
X1556047D1*
X1528353Y83270D2*
Y43078D1*
X1493053Y83270D2*
Y43078D1*
Y64125D2*
X1496856Y67972D1*
X1500703Y69873D1*
X1506451D1*
X1510253Y67972D1*
X1514100Y64125D1*
X1516001Y58377D1*
Y54574D1*
X1514100Y48826D1*
X1510253Y45024D1*
X1506451Y43078D1*
X1500703D1*
X1496856Y45024D1*
X1493053Y48826D1*
X1480702Y58377D2*
X1457754D1*
Y62224D1*
X1459655Y66070D1*
X1461557Y67972D1*
X1465403Y69873D1*
X1471151D1*
X1474954Y67972D1*
X1478801Y64125D1*
X1480702Y58377D1*
Y54574D1*
X1478801Y48826D1*
X1474954Y45024D1*
X1471151Y43078D1*
X1465403D1*
X1461557Y45024D1*
X1457754Y48826D1*
X1445403Y69873D2*
Y43078D1*
Y58377D2*
X1443457Y64125D1*
X1439655Y67972D1*
X1435808Y69873D1*
X1430060D1*
X1378828Y83270D2*
Y43078D1*
X1361583D1*
X1355835Y45024D1*
X1353934Y46925D1*
X1352033Y50728D1*
Y56476D1*
X1353934Y60322D1*
X1355835Y62224D1*
X1361583Y64125D1*
X1355835Y66070D1*
X1353934Y67972D1*
X1352033Y71774D1*
Y75621D1*
X1353934Y79424D1*
X1355835Y81369D1*
X1361583Y83270D1*
X1378828D1*
Y64125D2*
X1361583D1*
X1330131Y69873D2*
X1333933Y67972D1*
X1337780Y64125D1*
X1339682Y58377D1*
Y54574D1*
X1337780Y48826D1*
X1333933Y45024D1*
X1330131Y43078D1*
X1324383D1*
X1320536Y45024D1*
X1316734Y48826D1*
X1314788Y54574D1*
Y58377D1*
X1316734Y64125D1*
X1320536Y67972D1*
X1324383Y69873D1*
X1330131D1*
X1296689Y83270D2*
Y50728D1*
X1294787Y45024D1*
X1290941Y43078D1*
X1287138D1*
X1302437Y69873D2*
X1289039D1*
X1274787Y83270D2*
Y43078D1*
Y62224D2*
X1269039Y67972D1*
X1265192Y69873D1*
X1259444D1*
X1255641Y67972D1*
X1253740Y62224D1*
Y43078D1*
X731424Y845209D2*
D59*
X602259D1*
X666759Y780709D2*
Y909874D1*
X742119Y1061546D2*
Y989916D1*
X677619Y982787D1*
X684749Y989916D1*
X692045Y1011471D1*
Y1032861D1*
X684749Y1054416D1*
X670490Y1068841D1*
X648934Y1075971D1*
X634675D1*
X613120Y1068841D1*
X598694Y1054416D1*
X591565Y1032861D1*
Y1011472D1*
X598694Y989916D1*
X605990Y982787D1*
X620250Y975491D1*
X693970Y212527D2*
X708230Y205397D1*
X722655Y190972D1*
X729785Y176712D1*
Y148027D1*
X722655Y133602D1*
X708230Y119342D1*
X693970Y112047D1*
X672415Y104917D1*
X636434D1*
X615045Y112047D1*
X600620Y119342D1*
X586360Y133602D1*
X579065Y148027D1*
Y176712D1*
X586360Y190972D1*
X600620Y205397D1*
X615045Y212527D1*
X636434D1*
Y176712D1*
X729785Y378624D2*
X579065D1*
X729785Y278144D1*
X579065D1*
X729785Y444240D2*
X579065D1*
Y494480D1*
X586360Y516035D1*
X600620Y530461D1*
X615045Y537591D1*
X636434Y544720D1*
X672415D1*
X693970Y537591D1*
X708230Y530461D1*
X722655Y516035D1*
X729785Y494480D1*
Y444240D1*
X3438832Y1246230D2*
D60*
X3432996Y1234689D1*
X3415884Y1217445D1*
X3536328D1*
X3415884Y1136300D2*
X3421588Y1153411D1*
X3432996Y1159248D1*
X3444536D1*
X3455944Y1153411D1*
X3461780Y1142004D1*
X3467484Y1119056D1*
X3473188Y1101812D1*
X3484728Y1090404D1*
X3496136Y1084700D1*
X3513380D1*
X3524787Y1090404D1*
X3530624Y1096108D1*
X3536328Y1113352D1*
Y1136300D1*
X3530624Y1153411D1*
X3524787Y1159248D1*
X3513380Y1164952D1*
X3496136D1*
X3484728Y1159248D1*
X3473188Y1147708D1*
X3467484Y1130596D1*
X3461780Y1107648D1*
X3455944Y1096108D1*
X3444536Y1090404D1*
X3432996D1*
X3421588Y1096108D1*
X3415884Y1113352D1*
Y1136300D1*
X3476106Y1032207D2*
Y965884D1*
X3536328Y890442D2*
X3415884Y833006D1*
Y913390D1*
Y711669D2*
Y768972D1*
X3467484Y774676D1*
X3461780Y768972D1*
X3455944Y751728D1*
Y734617D1*
X3461780Y717373D1*
X3473188Y705833D1*
X3490432Y700129D1*
X3501839D1*
X3519084Y705833D1*
X3530624Y717373D1*
X3536328Y734617D1*
Y751728D1*
X3530624Y768972D1*
X3524787Y774676D1*
X3513380Y780513D1*
X3444403Y428141D2*
X3432996Y433845D1*
X3421455Y445385D1*
X3415752Y456792D1*
Y479740D1*
X3421455Y491281D1*
X3432996Y502688D1*
X3444403Y508525D1*
X3461647Y514229D1*
X3490432D1*
X3507543Y508525D1*
X3519084Y502688D1*
X3530491Y491281D1*
X3536328Y479740D1*
Y456792D1*
X3530491Y445385D1*
X3519084Y433845D1*
X3507543Y428141D1*
X3490432D1*
Y456792D1*
X3415752Y295263D2*
X3536328D1*
X3415752Y375647D1*
X3536328D1*
X3415752Y242770D2*
X3536328D1*
Y202578D1*
X3530491Y185334D1*
X3519084Y173794D1*
X3507543Y168090D1*
X3490432Y162386D1*
X3461647D1*
X3444403Y168090D1*
X3432996Y173794D1*
X3421455Y185334D1*
X3415752Y202578D1*
Y242770D1*
X2486360Y1220772D2*
D58*
Y1180580D1*
X2472963D1*
X2467215Y1182525D1*
X2463368Y1186328D1*
X2461467Y1190174D1*
X2459566Y1195878D1*
Y1205473D1*
X2461467Y1211221D1*
X2463368Y1215024D1*
X2467215Y1218870D1*
X2472963Y1220772D1*
X2486360D1*
X2447214Y1195878D2*
X2424266D1*
Y1199725D1*
X2426168Y1203572D1*
X2428069Y1205473D1*
X2431916Y1207374D1*
X2437664D1*
X2441466Y1205473D1*
X2445313Y1201626D1*
X2447214Y1195878D1*
Y1192076D1*
X2445313Y1186328D1*
X2441466Y1182525D1*
X2437664Y1180580D1*
X2431916D1*
X2428069Y1182525D1*
X2424266Y1186328D1*
X2390868Y1201626D2*
X2392770Y1205473D1*
X2398518Y1207374D1*
X2404266D1*
X2410014Y1205473D1*
X2411915Y1201626D1*
X2410014Y1197824D1*
X2406167Y1195878D1*
X2396616Y1193977D1*
X2392770Y1192076D1*
X2390868Y1188229D1*
Y1186328D1*
X2392770Y1182525D1*
X2398518Y1180580D1*
X2404266D1*
X2410014Y1182525D1*
X2411915Y1186328D1*
X2378517Y1220772D2*
X2376616Y1218870D1*
X2374670Y1220772D1*
X2376616Y1222717D1*
X2378517Y1220772D1*
X2376616Y1207374D2*
Y1180580D1*
X2339371Y1205473D2*
Y1174832D1*
X2341272Y1169128D1*
X2343173Y1167182D1*
X2347020Y1165281D1*
X2352768D1*
X2356571Y1167182D1*
X2339371Y1199725D2*
X2343173Y1203528D1*
X2347020Y1205473D1*
X2352768D1*
X2356571Y1203528D1*
X2360418Y1199725D1*
X2362319Y1193977D1*
Y1190130D1*
X2360418Y1184426D1*
X2356571Y1180580D1*
X2352768Y1178678D1*
X2347020D1*
X2343173Y1180580D1*
X2339371Y1184426D1*
X2327019Y1207374D2*
Y1180580D1*
Y1199725D2*
X2321271Y1205473D1*
X2317425Y1207374D1*
X2311721D1*
X2307874Y1205473D1*
X2305973Y1199725D1*
Y1180580D1*
X2293621Y1195878D2*
X2270674D1*
Y1199725D1*
X2272575Y1203572D1*
X2274476Y1205473D1*
X2278323Y1207374D1*
X2284071D1*
X2287873Y1205473D1*
X2291720Y1201626D1*
X2293621Y1195878D1*
Y1192076D1*
X2291720Y1186328D1*
X2287873Y1182525D1*
X2284071Y1180580D1*
X2278323D1*
X2274476Y1182525D1*
X2270674Y1186328D1*
X2235374Y1220772D2*
Y1180580D1*
Y1201626D2*
X2239177Y1205473D1*
X2243024Y1207374D1*
X2248772D1*
X2252574Y1205473D1*
X2256421Y1201626D1*
X2258322Y1195878D1*
Y1192076D1*
X2256421Y1186328D1*
X2252574Y1182525D1*
X2248772Y1180580D1*
X2243024D1*
X2239177Y1182525D1*
X2235374Y1186328D1*
X2184142Y1220772D2*
Y1180580D1*
X2166898D1*
X2161150Y1182525D1*
X2159249Y1184426D1*
X2157347Y1188229D1*
Y1193977D1*
X2159249Y1197824D1*
X2161150Y1199725D1*
X2166898Y1201626D1*
X2161150Y1203572D1*
X2159249Y1205473D1*
X2157347Y1209276D1*
Y1213122D1*
X2159249Y1216925D1*
X2161150Y1218870D1*
X2166898Y1220772D1*
X2184142D1*
Y1201626D2*
X2166898D1*
X2143051Y1207374D2*
X2131599Y1180580D1*
X2135401Y1172930D1*
X2139248Y1169084D1*
X2143051Y1167182D1*
X2144996D1*
X2120103Y1207374D2*
X2131599Y1180580D1*
X2038229D2*
X2053572Y1220772D1*
X2068870Y1180580D1*
X2063122Y1193977D2*
X2043977D1*
X2025878Y1220772D2*
Y1180580D1*
X2013526Y1195878D2*
X1990578D1*
Y1199725D1*
X1992480Y1203572D1*
X1994381Y1205473D1*
X1998228Y1207374D1*
X2003976D1*
X2007778Y1205473D1*
X2011625Y1201626D1*
X2013526Y1195878D1*
Y1192076D1*
X2011625Y1186328D1*
X2007778Y1182525D1*
X2003976Y1180580D1*
X1998228D1*
X1994381Y1182525D1*
X1990578Y1186328D1*
X1978227Y1207374D2*
X1957180Y1180580D1*
Y1207374D2*
X1978227Y1180580D1*
X1905948Y1220772D2*
X1896353Y1180580D1*
X1886803Y1220772D1*
X1877252Y1180580D1*
X1867657Y1220772D1*
X1845755Y1207374D2*
X1849558Y1205473D1*
X1853405Y1201626D1*
X1855306Y1195878D1*
Y1192076D1*
X1853405Y1186328D1*
X1849558Y1182525D1*
X1845755Y1180580D1*
X1840007D1*
X1836161Y1182525D1*
X1832358Y1186328D1*
X1830413Y1192076D1*
Y1195878D1*
X1832358Y1201626D1*
X1836161Y1205473D1*
X1840007Y1207374D1*
X1845755D1*
X1808511D2*
X1812313Y1205473D1*
X1816160Y1201626D1*
X1818061Y1195878D1*
Y1192076D1*
X1816160Y1186328D1*
X1812313Y1182525D1*
X1808511Y1180580D1*
X1802763D1*
X1798916Y1182525D1*
X1795113Y1186328D1*
X1793168Y1192076D1*
Y1195878D1*
X1795113Y1201626D1*
X1798916Y1205473D1*
X1802763Y1207374D1*
X1808511D1*
X1757868Y1220772D2*
Y1180580D1*
Y1201626D2*
X1761671Y1205473D1*
X1765518Y1207374D1*
X1771266D1*
X1775068Y1205473D1*
X1778915Y1201626D1*
X1780816Y1195878D1*
Y1192076D1*
X1778915Y1186328D1*
X1775068Y1182525D1*
X1771266Y1180580D1*
X1765518D1*
X1761671Y1182525D1*
X1757868Y1186328D1*
X1745517Y1207374D2*
Y1180580D1*
Y1199725D2*
X1739769Y1205473D1*
X1735922Y1207374D1*
X1730218D1*
X1726372Y1205473D1*
X1724470Y1199725D1*
Y1180580D1*
Y1199725D2*
X1718722Y1205473D1*
X1714876Y1207374D1*
X1709172D1*
X1705325Y1205473D1*
X1703380Y1199725D1*
Y1180580D1*
X1668080Y1207374D2*
Y1180580D1*
Y1201626D2*
X1671883Y1205473D1*
X1675730Y1207374D1*
X1681433D1*
X1685280Y1205473D1*
X1689083Y1201626D1*
X1691028Y1195878D1*
Y1192076D1*
X1689083Y1186328D1*
X1685280Y1182525D1*
X1681433Y1180580D1*
X1675730D1*
X1671883Y1182525D1*
X1668080Y1186328D1*
X1655729Y1207374D2*
Y1180580D1*
Y1199725D2*
X1649981Y1205473D1*
X1646134Y1207374D1*
X1640430D1*
X1636583Y1205473D1*
X1634682Y1199725D1*
Y1180580D1*
X1601284Y1201626D2*
X1603185Y1205473D1*
X1608933Y1207374D1*
X1614682D1*
X1620430Y1205473D1*
X1622331Y1201626D1*
X1620430Y1197824D1*
X1616583Y1195878D1*
X1607032Y1193977D1*
X1603185Y1192076D1*
X1601284Y1188229D1*
Y1186328D1*
X1603185Y1182525D1*
X1608933Y1180580D1*
X1614682D1*
X1620430Y1182525D1*
X1622331Y1186328D1*
X1588933Y1195878D2*
X1565985D1*
Y1199725D1*
X1567886Y1203572D1*
X1569787Y1205473D1*
X1573634Y1207374D1*
X1579382D1*
X1583185Y1205473D1*
X1587032Y1201626D1*
X1588933Y1195878D1*
Y1192076D1*
X1587032Y1186328D1*
X1583185Y1182525D1*
X1579382Y1180580D1*
X1573634D1*
X1569787Y1182525D1*
X1565985Y1186328D1*
X1551688Y1207374D2*
X1540236Y1180580D1*
X1544039Y1172930D1*
X1547885Y1169084D1*
X1551688Y1167182D1*
X1553633D1*
X1528740Y1207374D2*
X1540236Y1180580D1*
X1501243Y1482962D2*
D24*
X1391237D1*
X1501243Y1402962D2*
G03X1511240Y1412962I5J9992D01*
G01*
X1381240D2*
G03X1391237Y1402962I9992J-8D01*
G01*
X1381240Y1472962D2*
G02X1391237Y1482962I9992J8D01*
G01*
X1501243D2*
G02X1511240Y1472962I5J-9992D01*
G01*
Y1412962D1*
X1381240Y1472962D2*
Y1412962D1*
X1391237Y1402962D2*
X1501243D1*
X1868737Y1340463D2*
X1978743D1*
X1868737Y1420463D2*
G03X1858740Y1410463I-5J-9992D01*
G01*
X1988740D2*
G03X1978743Y1420463I-9992J8D01*
G01*
X1988740Y1350463D2*
G02X1978743Y1340463I-9992J-8D01*
G01*
X1868737D2*
G02X1858740Y1350463I-5J9992D01*
G01*
Y1410463D1*
X1988740Y1350463D2*
Y1410463D1*
X1978743Y1420463D2*
X1868737D1*
X2730353Y1976566D2*
D57*
X2732730Y1981320D1*
X2737538Y1986128D1*
X2742292Y1988505D1*
X2751853D1*
X2756662Y1986128D1*
X2761415Y1981320D1*
X2763847Y1976566D1*
X2766223Y1969381D1*
Y1957388D1*
X2763847Y1950258D1*
X2761415Y1945450D1*
X2756662Y1940696D1*
X2751853Y1938265D1*
X2742292D1*
X2737538Y1940696D1*
X2732730Y1945450D1*
X2730353Y1950258D1*
Y1957388D1*
X2742292D1*
X2683853Y1988505D2*
X2714914D1*
Y1938265D1*
X2683853D1*
X2714914Y1964573D2*
X2695791D1*
X2619812Y1988505D2*
Y1938265D1*
X2603066D1*
X2595881Y1940696D1*
X2591072Y1945450D1*
X2588696Y1950258D1*
X2586319Y1957388D1*
Y1969381D1*
X2588696Y1976566D1*
X2591072Y1981320D1*
X2595881Y1986128D1*
X2603066Y1988505D1*
X2619812D1*
X2535010Y1976566D2*
X2537387Y1981320D1*
X2542195Y1986128D1*
X2546948Y1988505D1*
X2556510D1*
X2561318Y1986128D1*
X2566071Y1981320D1*
X2568503Y1976566D1*
X2570880Y1969381D1*
Y1957388D1*
X2568503Y1950258D1*
X2566071Y1945450D1*
X2561318Y1940696D1*
X2556510Y1938265D1*
X2546948D1*
X2542195Y1940696D1*
X2537387Y1945450D1*
X2535010Y1950258D1*
X2519571Y1963357D2*
X2491936D1*
X2476497Y1988505D2*
Y1938265D1*
X2459750D1*
X2452565Y1940696D1*
X2447757Y1945450D1*
X2445380Y1950258D1*
X2443003Y1957388D1*
Y1969381D1*
X2445380Y1976566D1*
X2447757Y1981320D1*
X2452565Y1986128D1*
X2459750Y1988505D1*
X2476497D1*
X2391694Y1976566D2*
X2394071Y1981320D1*
X2398879Y1986128D1*
X2403632Y1988505D1*
X2413194D1*
X2418003Y1986128D1*
X2422756Y1981320D1*
X2425188Y1976566D1*
X2427564Y1969381D1*
Y1957388D1*
X2425188Y1950258D1*
X2422756Y1945450D1*
X2418003Y1940696D1*
X2413194Y1938265D1*
X2403632D1*
X2398879Y1940696D1*
X2394071Y1945450D1*
X2391694Y1950258D1*
X2296593Y1988505D2*
X2327654D1*
Y1938265D1*
X2296593D1*
X2327654Y1964573D2*
X2308531D1*
X2281153Y1988505D2*
Y1938265D1*
X2247660Y1988505D2*
Y1938265D1*
X2281153Y1964573D2*
X2247660D1*
X2232221Y1988505D2*
Y1938265D1*
X2198727Y1988505D2*
Y1938265D1*
X2232221Y1964573D2*
X2198727D1*
X2183288Y1988505D2*
Y1938265D1*
X2166541D1*
X2159356Y1940696D1*
X2154548Y1945450D1*
X2152171Y1950258D1*
X2149795Y1957388D1*
Y1969381D1*
X2152171Y1976566D1*
X2154548Y1981320D1*
X2159356Y1986128D1*
X2166541Y1988505D1*
X2183288D1*
X2119985Y1988449D2*
X2127170Y1986073D1*
X2131979Y1978888D1*
X2134356Y1966949D1*
Y1959764D1*
X2131979Y1947826D1*
X2127170Y1940641D1*
X2119985Y1938265D1*
X2115232D1*
X2108047Y1940641D1*
X2103294Y1947826D1*
X2100862Y1959764D1*
Y1966949D1*
X2103294Y1978888D1*
X2108047Y1986073D1*
X2115232Y1988449D1*
X2119985D1*
X2103294Y1978888D2*
X2131979Y1947826D1*
X2082991Y1976511D2*
Y1978888D1*
X2080614Y1983696D1*
X2078238Y1986073D1*
X2073429Y1988449D1*
X2063868D1*
X2059115Y1986073D1*
X2056738Y1983696D1*
X2054306Y1978888D1*
Y1974134D1*
X2056738Y1969326D1*
X2061491Y1962196D1*
X2085423Y1938265D1*
X2051930D1*
X2012559D2*
Y1988449D1*
X2036490Y1955011D1*
X2000620D1*
X1946879Y1938265D2*
X1966058Y1988505D1*
X1985181Y1938265D1*
X1977996Y1955011D2*
X1954064D1*
X1917070Y1988449D2*
X1924255Y1986073D1*
X1929064Y1978888D1*
X1931440Y1966949D1*
Y1959764D1*
X1929064Y1947826D1*
X1924255Y1940641D1*
X1917070Y1938265D1*
X1912317D1*
X1905132Y1940641D1*
X1900379Y1947826D1*
X1897947Y1959764D1*
Y1966949D1*
X1900379Y1978888D1*
X1905132Y1986073D1*
X1912317Y1988449D1*
X1917070D1*
X1900379Y1978888D2*
X1929064Y1947826D1*
X1844206Y1938265D2*
X1863384Y1988505D1*
X1882508Y1938265D1*
X1875323Y1955011D2*
X1851391D1*
X1804835Y1938265D2*
Y1988449D1*
X1828767Y1955011D1*
X1792897D1*
X1777457Y1978888D2*
X1772649Y1981320D1*
X1765464Y1988449D1*
Y1938265D1*
X1750025Y1963357D2*
X1722390D1*
X1706951Y1988505D2*
Y1938265D1*
X1673457Y1988505D2*
Y1938265D1*
X1706951Y1964573D2*
X1673457D1*
X1658018Y1988505D2*
X1624525D1*
X1658018Y1938265D1*
X1624525D1*
X1368512Y1441037D2*
X1340877D1*
X1308691Y1466185D2*
Y1415945D1*
X1325438Y1466185D2*
X1291945D1*
X1276506Y1449438D2*
Y1415945D1*
Y1435068D2*
X1274074Y1442253D1*
X1269320Y1447062D1*
X1264512Y1449438D1*
X1257327D1*
X1241888Y1466185D2*
X1239511Y1463808D1*
X1237079Y1466185D1*
X1239511Y1468617D1*
X1241888Y1466185D1*
X1239511Y1449438D2*
Y1415945D1*
X1221640Y1449438D2*
Y1415945D1*
Y1439877D2*
X1214455Y1447062D1*
X1209647Y1449438D1*
X1202517D1*
X1197708Y1447062D1*
X1195332Y1439877D1*
Y1415945D1*
Y1439877D2*
X1188147Y1447062D1*
X1183338Y1449438D1*
X1176208D1*
X1171400Y1447062D1*
X1168968Y1439877D1*
Y1415945D1*
X2019722Y1487566D2*
Y1444511D1*
X2041222Y1466011D2*
X1998167D1*
X1965981Y1491186D2*
Y1440946D1*
X1982728Y1491186D2*
X1949235D1*
X1933795Y1474440D2*
Y1440946D1*
Y1460070D2*
X1931364Y1467255D1*
X1926610Y1472063D1*
X1921802Y1474440D1*
X1914617D1*
X1899178Y1491186D2*
X1896801Y1488810D1*
X1894369Y1491186D1*
X1896801Y1493618D1*
X1899178Y1491186D1*
X1896801Y1474440D2*
Y1440946D1*
X1878930Y1474440D2*
Y1440946D1*
Y1464878D2*
X1871745Y1472063D1*
X1866936Y1474440D1*
X1859807D1*
X1854998Y1472063D1*
X1852622Y1464878D1*
Y1440946D1*
Y1464878D2*
X1845437Y1472063D1*
X1840628Y1474440D1*
X1833498D1*
X1828690Y1472063D1*
X1826258Y1464878D1*
Y1440946D1*
X1821065Y1373839D2*
D58*
Y1350891D1*
X1830659Y1368135D2*
X1811514Y1356639D1*
Y1368135D2*
X1830659Y1356639D1*
X1799163Y1382483D2*
Y1342291D1*
X1785765D1*
X1780017Y1344236D1*
X1776170Y1348039D1*
X1774269Y1351886D1*
X1772368Y1357590D1*
Y1367184D1*
X1774269Y1372932D1*
X1776170Y1376735D1*
X1780017Y1380582D1*
X1785765Y1382483D1*
X1799163D1*
X1750466Y1369086D2*
X1754268Y1367184D1*
X1758115Y1363338D1*
X1760016Y1357590D1*
Y1353787D1*
X1758115Y1348039D1*
X1754268Y1344236D1*
X1750466Y1342291D1*
X1744718D1*
X1740871Y1344236D1*
X1737069Y1348039D1*
X1735123Y1353787D1*
Y1357590D1*
X1737069Y1363338D1*
X1740871Y1367184D1*
X1744718Y1369086D1*
X1750466D1*
X1722772D2*
Y1342291D1*
Y1361436D2*
X1717024Y1367184D1*
X1713177Y1369086D1*
X1707473D1*
X1703626Y1367184D1*
X1701725Y1361436D1*
Y1342291D1*
X1679779Y1382439D2*
X1689374Y1370943D1*
X1677878Y1380537D1*
X1679779Y1382439D1*
X1659778Y1382483D2*
Y1349940D1*
X1657877Y1344236D1*
X1654030Y1342291D1*
X1650228D1*
X1665526Y1369086D2*
X1652129D1*
X1577949Y1363338D2*
X1579850Y1367184D1*
X1585598Y1369086D1*
X1591346D1*
X1597094Y1367184D1*
X1598995Y1363338D1*
X1597094Y1359535D1*
X1593247Y1357590D1*
X1583697Y1355688D1*
X1579850Y1353787D1*
X1577949Y1349940D1*
Y1348039D1*
X1579850Y1344236D1*
X1585598Y1342291D1*
X1591346D1*
X1597094Y1344236D1*
X1598995Y1348039D1*
X1556047Y1369086D2*
X1559849Y1367184D1*
X1563696Y1363338D1*
X1565597Y1357590D1*
Y1353787D1*
X1563696Y1348039D1*
X1559849Y1344236D1*
X1556047Y1342291D1*
X1550299D1*
X1546452Y1344236D1*
X1542649Y1348039D1*
X1540704Y1353787D1*
Y1357590D1*
X1542649Y1363338D1*
X1546452Y1367184D1*
X1550299Y1369086D1*
X1556047D1*
X1528353Y1382483D2*
Y1342291D1*
X1493053Y1382483D2*
Y1342291D1*
Y1363338D2*
X1496856Y1367184D1*
X1500703Y1369086D1*
X1506451D1*
X1510253Y1367184D1*
X1514100Y1363338D1*
X1516001Y1357590D1*
Y1353787D1*
X1514100Y1348039D1*
X1510253Y1344236D1*
X1506451Y1342291D1*
X1500703D1*
X1496856Y1344236D1*
X1493053Y1348039D1*
X1480702Y1357590D2*
X1457754D1*
Y1361436D1*
X1459655Y1365283D1*
X1461557Y1367184D1*
X1465403Y1369086D1*
X1471151D1*
X1474954Y1367184D1*
X1478801Y1363338D1*
X1480702Y1357590D1*
Y1353787D1*
X1478801Y1348039D1*
X1474954Y1344236D1*
X1471151Y1342291D1*
X1465403D1*
X1461557Y1344236D1*
X1457754Y1348039D1*
X1445403Y1369086D2*
Y1342291D1*
Y1357590D2*
X1443457Y1363338D1*
X1439655Y1367184D1*
X1435808Y1369086D1*
X1430060D1*
X1378828Y1382483D2*
Y1342291D1*
X1361583D1*
X1355835Y1344236D1*
X1353934Y1346138D1*
X1352033Y1349940D1*
Y1355688D1*
X1353934Y1359535D1*
X1355835Y1361436D1*
X1361583Y1363338D1*
X1355835Y1365283D1*
X1353934Y1367184D1*
X1352033Y1370987D1*
Y1374834D1*
X1353934Y1378636D1*
X1355835Y1380582D1*
X1361583Y1382483D1*
X1378828D1*
Y1363338D2*
X1361583D1*
X1330131Y1369086D2*
X1333933Y1367184D1*
X1337780Y1363338D1*
X1339682Y1357590D1*
Y1353787D1*
X1337780Y1348039D1*
X1333933Y1344236D1*
X1330131Y1342291D1*
X1324383D1*
X1320536Y1344236D1*
X1316734Y1348039D1*
X1314788Y1353787D1*
Y1357590D1*
X1316734Y1363338D1*
X1320536Y1367184D1*
X1324383Y1369086D1*
X1330131D1*
X1296689Y1382483D2*
Y1349940D1*
X1294787Y1344236D1*
X1290941Y1342291D1*
X1287138D1*
X1302437Y1369086D2*
X1289039D1*
X1274787Y1382483D2*
Y1342291D1*
Y1361436D2*
X1269039Y1367184D1*
X1265192Y1369086D1*
X1259444D1*
X1255641Y1367184D1*
X1253740Y1361436D1*
Y1342291D1*
X731424Y2144422D2*
D59*
X602259D1*
X666759Y2079922D2*
Y2209087D1*
X742119Y2360758D2*
Y2289129D1*
X677619Y2281999D1*
X684749Y2289129D1*
X692045Y2310684D1*
Y2332073D1*
X684749Y2353628D1*
X670490Y2368054D1*
X648934Y2375184D1*
X634675D1*
X613120Y2368054D1*
X598694Y2353628D1*
X591565Y2332073D1*
Y2310684D1*
X598694Y2289129D1*
X605990Y2281999D1*
X620250Y2274704D1*
X693970Y1511739D2*
X708230Y1504610D1*
X722655Y1490184D1*
X729785Y1475925D1*
Y1447240D1*
X722655Y1432815D1*
X708230Y1418555D1*
X693970Y1411259D1*
X672415Y1404130D1*
X636434D1*
X615045Y1411259D1*
X600620Y1418555D1*
X586360Y1432815D1*
X579065Y1447240D1*
Y1475925D1*
X586360Y1490184D1*
X600620Y1504610D1*
X615045Y1511739D1*
X636434D1*
Y1475925D1*
X729785Y1677836D2*
X579065D1*
X729785Y1577356D1*
X579065D1*
X729785Y1743453D2*
X579065D1*
Y1793693D1*
X586360Y1815248D1*
X600620Y1829673D1*
X615045Y1836803D1*
X636434Y1843933D1*
X672415D1*
X693970Y1836803D1*
X708230Y1829673D1*
X722655Y1815248D1*
X729785Y1793693D1*
Y1743453D1*
X3438832Y2545442D2*
D60*
X3432996Y2533902D1*
X3415884Y2516658D1*
X3536328D1*
X3415884Y2435513D2*
X3421588Y2452624D1*
X3432996Y2458461D1*
X3444536D1*
X3455944Y2452624D1*
X3461780Y2441216D1*
X3467484Y2418269D1*
X3473188Y2401024D1*
X3484728Y2389617D1*
X3496136Y2383913D1*
X3513380D1*
X3524787Y2389617D1*
X3530624Y2395321D1*
X3536328Y2412565D1*
Y2435513D1*
X3530624Y2452624D1*
X3524787Y2458461D1*
X3513380Y2464164D1*
X3496136D1*
X3484728Y2458461D1*
X3473188Y2446920D1*
X3467484Y2429809D1*
X3461780Y2406861D1*
X3455944Y2395321D1*
X3444536Y2389617D1*
X3432996D1*
X3421588Y2395321D1*
X3415884Y2412565D1*
Y2435513D1*
X3476106Y2331420D2*
Y2265096D1*
X3536328Y2189655D2*
X3415884Y2132219D1*
Y2212603D1*
Y2010882D2*
Y2068185D1*
X3467484Y2073889D1*
X3461780Y2068185D1*
X3455944Y2050941D1*
Y2033830D1*
X3461780Y2016585D1*
X3473188Y2005045D1*
X3490432Y1999341D1*
X3501839D1*
X3519084Y2005045D1*
X3530624Y2016585D1*
X3536328Y2033829D1*
Y2050941D1*
X3530624Y2068185D1*
X3524787Y2073889D1*
X3513380Y2079725D1*
X3444403Y1727353D2*
X3432996Y1733057D1*
X3421455Y1744597D1*
X3415752Y1756005D1*
Y1778953D1*
X3421455Y1790493D1*
X3432996Y1801901D1*
X3444403Y1807737D1*
X3461647Y1813441D1*
X3490432D1*
X3507543Y1807737D1*
X3519084Y1801901D1*
X3530491Y1790493D1*
X3536328Y1778953D1*
Y1756005D1*
X3530491Y1744597D1*
X3519084Y1733057D1*
X3507543Y1727353D1*
X3490432D1*
Y1756005D1*
X3415752Y1594476D2*
X3536328D1*
X3415752Y1674860D1*
X3536328D1*
X3415752Y1541983D2*
X3536328Y1541982D1*
Y1501791D1*
X3530491Y1484546D1*
X3519084Y1473006D1*
X3507543Y1467302D1*
X3490432Y1461599D1*
X3461647D1*
X3444403Y1467302D1*
X3432996Y1473006D1*
X3421455Y1484546D1*
X3415752Y1501791D1*
Y1541983D1*
X2486360Y2519984D2*
D58*
Y2479792D1*
X2472963D1*
X2467215Y2481738D1*
X2463368Y2485540D1*
X2461467Y2489387D1*
X2459566Y2495091D1*
Y2504686D1*
X2461467Y2510434D1*
X2463368Y2514236D1*
X2467215Y2518083D1*
X2472963Y2519984D1*
X2486360D1*
X2447214Y2495091D2*
X2424266D1*
Y2498938D1*
X2426168Y2502784D1*
X2428069Y2504686D1*
X2431916Y2506587D1*
X2437664D1*
X2441466Y2504686D1*
X2445313Y2500839D1*
X2447214Y2495091D1*
Y2491288D1*
X2445313Y2485540D1*
X2441466Y2481738D1*
X2437664Y2479792D1*
X2431916D1*
X2428069Y2481738D1*
X2424266Y2485540D1*
X2390868Y2500839D2*
X2392770Y2504686D1*
X2398518Y2506587D1*
X2404266D1*
X2410014Y2504686D1*
X2411915Y2500839D1*
X2410014Y2497036D1*
X2406167Y2495091D1*
X2396616Y2493190D1*
X2392770Y2491288D1*
X2390868Y2487442D1*
Y2485540D1*
X2392770Y2481738D1*
X2398518Y2479792D1*
X2404266D1*
X2410014Y2481738D1*
X2411915Y2485540D1*
X2378517Y2519984D2*
X2376616Y2518083D1*
X2374670Y2519984D1*
X2376616Y2521930D1*
X2378517Y2519984D1*
X2376616Y2506587D2*
Y2479792D1*
X2339371Y2504686D2*
Y2474044D1*
X2341272Y2468340D1*
X2343173Y2466395D1*
X2347020Y2464494D1*
X2352768D1*
X2356571Y2466395D1*
X2339371Y2498938D2*
X2343173Y2502740D1*
X2347020Y2504686D1*
X2352768D1*
X2356571Y2502740D1*
X2360418Y2498938D1*
X2362319Y2493190D1*
Y2489343D1*
X2360418Y2483639D1*
X2356571Y2479792D1*
X2352768Y2477891D1*
X2347020D1*
X2343173Y2479792D1*
X2339371Y2483639D1*
X2327019Y2506587D2*
Y2479792D1*
Y2498938D2*
X2321271Y2504686D1*
X2317425Y2506587D1*
X2311721D1*
X2307874Y2504686D1*
X2305973Y2498938D1*
Y2479792D1*
X2293621Y2495091D2*
X2270674D1*
Y2498938D1*
X2272575Y2502784D1*
X2274476Y2504686D1*
X2278323Y2506587D1*
X2284071D1*
X2287873Y2504686D1*
X2291720Y2500839D1*
X2293621Y2495091D1*
Y2491288D1*
X2291720Y2485540D1*
X2287873Y2481738D1*
X2284071Y2479792D1*
X2278323D1*
X2274476Y2481738D1*
X2270674Y2485540D1*
X2235374Y2519984D2*
Y2479792D1*
Y2500839D2*
X2239177Y2504686D1*
X2243024Y2506587D1*
X2248772D1*
X2252574Y2504686D1*
X2256421Y2500839D1*
X2258322Y2495091D1*
Y2491288D1*
X2256421Y2485540D1*
X2252574Y2481738D1*
X2248772Y2479792D1*
X2243024D1*
X2239177Y2481738D1*
X2235374Y2485540D1*
X2184142Y2519984D2*
Y2479792D1*
X2166898D1*
X2161150Y2481738D1*
X2159249Y2483639D1*
X2157347Y2487442D1*
Y2493190D1*
X2159249Y2497036D1*
X2161150Y2498938D1*
X2166898Y2500839D1*
X2161150Y2502784D1*
X2159249Y2504686D1*
X2157347Y2508488D1*
Y2512335D1*
X2159249Y2516137D1*
X2161150Y2518083D1*
X2166898Y2519984D1*
X2184142D1*
Y2500839D2*
X2166898D1*
X2143051Y2506587D2*
X2131599Y2479792D1*
X2135401Y2472143D1*
X2139248Y2468296D1*
X2143051Y2466395D1*
X2144996D1*
X2120103Y2506587D2*
X2131599Y2479792D1*
X2038229D2*
X2053572Y2519984D1*
X2068870Y2479792D1*
X2063122Y2493190D2*
X2043977D1*
X2025878Y2519984D2*
Y2479792D1*
X2013526Y2495091D2*
X1990578D1*
Y2498938D1*
X1992480Y2502784D1*
X1994381Y2504686D1*
X1998228Y2506587D1*
X2003976D1*
X2007778Y2504686D1*
X2011625Y2500839D1*
X2013526Y2495091D1*
Y2491288D1*
X2011625Y2485540D1*
X2007778Y2481738D1*
X2003976Y2479792D1*
X1998228D1*
X1994381Y2481738D1*
X1990578Y2485540D1*
X1978227Y2506587D2*
X1957180Y2479792D1*
Y2506587D2*
X1978227Y2479792D1*
X1905948Y2519984D2*
X1896353Y2479792D1*
X1886803Y2519984D1*
X1877252Y2479792D1*
X1867657Y2519984D1*
X1845755Y2506587D2*
X1849558Y2504686D1*
X1853405Y2500839D1*
X1855306Y2495091D1*
Y2491288D1*
X1853405Y2485540D1*
X1849558Y2481738D1*
X1845755Y2479792D1*
X1840007D1*
X1836161Y2481738D1*
X1832358Y2485540D1*
X1830413Y2491288D1*
Y2495091D1*
X1832358Y2500839D1*
X1836161Y2504686D1*
X1840007Y2506587D1*
X1845755D1*
X1808511D2*
X1812313Y2504686D1*
X1816160Y2500839D1*
X1818061Y2495091D1*
Y2491288D1*
X1816160Y2485540D1*
X1812313Y2481738D1*
X1808511Y2479792D1*
X1802763D1*
X1798916Y2481738D1*
X1795113Y2485540D1*
X1793168Y2491288D1*
Y2495091D1*
X1795113Y2500839D1*
X1798916Y2504686D1*
X1802763Y2506587D1*
X1808511D1*
X1757868Y2519984D2*
Y2479792D1*
Y2500839D2*
X1761671Y2504686D1*
X1765518Y2506587D1*
X1771266D1*
X1775068Y2504686D1*
X1778915Y2500839D1*
X1780816Y2495091D1*
Y2491288D1*
X1778915Y2485540D1*
X1775068Y2481738D1*
X1771266Y2479792D1*
X1765518D1*
X1761671Y2481738D1*
X1757868Y2485540D1*
X1745517Y2506587D2*
Y2479792D1*
Y2498938D2*
X1739769Y2504686D1*
X1735922Y2506587D1*
X1730218D1*
X1726372Y2504686D1*
X1724470Y2498938D1*
Y2479792D1*
Y2498938D2*
X1718722Y2504686D1*
X1714876Y2506587D1*
X1709172D1*
X1705325Y2504686D1*
X1703380Y2498938D1*
Y2479792D1*
X1668080Y2506587D2*
Y2479792D1*
Y2500839D2*
X1671883Y2504686D1*
X1675730Y2506587D1*
X1681433D1*
X1685280Y2504686D1*
X1689083Y2500839D1*
X1691028Y2495091D1*
Y2491288D1*
X1689083Y2485540D1*
X1685280Y2481738D1*
X1681433Y2479792D1*
X1675730D1*
X1671883Y2481738D1*
X1668080Y2485540D1*
X1655729Y2506587D2*
Y2479792D1*
Y2498938D2*
X1649981Y2504686D1*
X1646134Y2506587D1*
X1640430D1*
X1636583Y2504686D1*
X1634682Y2498938D1*
Y2479792D1*
X1601284Y2500839D2*
X1603185Y2504686D1*
X1608933Y2506587D1*
X1614682D1*
X1620430Y2504686D1*
X1622331Y2500839D1*
X1620430Y2497036D1*
X1616583Y2495091D1*
X1607032Y2493190D1*
X1603185Y2491288D1*
X1601284Y2487442D1*
Y2485540D1*
X1603185Y2481738D1*
X1608933Y2479792D1*
X1614682D1*
X1620430Y2481738D1*
X1622331Y2485540D1*
X1588933Y2495091D2*
X1565985D1*
Y2498938D1*
X1567886Y2502784D1*
X1569787Y2504686D1*
X1573634Y2506587D1*
X1579382D1*
X1583185Y2504686D1*
X1587032Y2500839D1*
X1588933Y2495091D1*
Y2491288D1*
X1587032Y2485540D1*
X1583185Y2481738D1*
X1579382Y2479792D1*
X1573634D1*
X1569787Y2481738D1*
X1565985Y2485540D1*
X1551688Y2506587D2*
X1540236Y2479792D1*
X1544039Y2472143D1*
X1547885Y2468296D1*
X1551688Y2466395D1*
X1553633D1*
X1528740Y2506587D2*
X1540236Y2479792D1*
X1501243Y2782175D2*
D24*
X1391237D1*
X1501243Y2702175D2*
G03X1511240Y2712175I5J9992D01*
G01*
X1381240D2*
G03X1391237Y2702175I9992J-8D01*
G01*
X1381240Y2772175D2*
G02X1391237Y2782175I9992J8D01*
G01*
X1501243D2*
G02X1511240Y2772175I5J-9992D01*
G01*
Y2712175D1*
X1381240Y2772175D2*
Y2712175D1*
X1391237Y2702175D2*
X1501243D1*
X1868737Y2639676D2*
X1978743D1*
X1868737Y2719676D2*
G03X1858740Y2709676I-5J-9992D01*
G01*
X1988740D2*
G03X1978743Y2719676I-9992J8D01*
G01*
X1988740Y2649676D2*
G02X1978743Y2639676I-9992J-8D01*
G01*
X1868737D2*
G02X1858740Y2649676I-5J9992D01*
G01*
Y2709676D1*
X1988740Y2649676D2*
Y2709676D1*
X1978743Y2719676D2*
X1868737D1*
X2730353Y3275779D2*
D57*
X2732730Y3280532D1*
X2737538Y3285341D1*
X2742292Y3287717D1*
X2751853D1*
X2756662Y3285341D1*
X2761415Y3280532D1*
X2763847Y3275779D1*
X2766223Y3268594D1*
Y3256600D1*
X2763847Y3249471D1*
X2761415Y3244662D1*
X2756662Y3239909D1*
X2751853Y3237477D1*
X2742292D1*
X2737538Y3239909D1*
X2732730Y3244662D1*
X2730353Y3249471D1*
Y3256600D1*
X2742292D1*
X2683853Y3287717D2*
X2714914D1*
Y3237477D1*
X2683853D1*
X2714914Y3263785D2*
X2695791D1*
X2619812Y3287717D2*
Y3237477D1*
X2603066D1*
X2595881Y3239909D1*
X2591072Y3244662D1*
X2588696Y3249471D1*
X2586319Y3256600D1*
Y3268594D1*
X2588696Y3275779D1*
X2591072Y3280532D1*
X2595881Y3285341D1*
X2603066Y3287717D1*
X2619812D1*
X2535010Y3275779D2*
X2537387Y3280532D1*
X2542195Y3285341D1*
X2546948Y3287717D1*
X2556510D1*
X2561318Y3285341D1*
X2566071Y3280532D1*
X2568503Y3275779D1*
X2570880Y3268594D1*
Y3256600D1*
X2568503Y3249471D1*
X2566071Y3244662D1*
X2561318Y3239909D1*
X2556510Y3237477D1*
X2546948D1*
X2542195Y3239909D1*
X2537387Y3244662D1*
X2535010Y3249471D1*
X2519571Y3262570D2*
X2491936D1*
X2476497Y3287717D2*
Y3237477D1*
X2459750D1*
X2452565Y3239909D1*
X2447757Y3244662D1*
X2445380Y3249471D1*
X2443003Y3256600D1*
Y3268594D1*
X2445380Y3275779D1*
X2447757Y3280532D1*
X2452565Y3285341D1*
X2459750Y3287717D1*
X2476497D1*
X2391694Y3275779D2*
X2394071Y3280532D1*
X2398879Y3285341D1*
X2403632Y3287717D1*
X2413194D1*
X2418003Y3285341D1*
X2422756Y3280532D1*
X2425188Y3275779D1*
X2427564Y3268594D1*
Y3256600D1*
X2425188Y3249471D1*
X2422756Y3244662D1*
X2418003Y3239909D1*
X2413194Y3237477D1*
X2403632D1*
X2398879Y3239909D1*
X2394071Y3244662D1*
X2391694Y3249471D1*
X2296593Y3287717D2*
X2327654D1*
Y3237477D1*
X2296593D1*
X2327654Y3263785D2*
X2308531D1*
X2281153Y3287717D2*
Y3237477D1*
X2247660Y3287717D2*
Y3237477D1*
X2281153Y3263785D2*
X2247660D1*
X2232221Y3287717D2*
Y3237477D1*
X2198727Y3287717D2*
Y3237477D1*
X2232221Y3263785D2*
X2198727D1*
X2183288Y3287717D2*
Y3237477D1*
X2166541D1*
X2159356Y3239909D1*
X2154548Y3244662D1*
X2152171Y3249471D1*
X2149795Y3256600D1*
Y3268594D1*
X2152171Y3275779D1*
X2154548Y3280532D1*
X2159356Y3285341D1*
X2166541Y3287717D1*
X2183288D1*
X2119985Y3287662D2*
X2127170Y3285285D1*
X2131979Y3278100D1*
X2134356Y3266162D1*
Y3258977D1*
X2131979Y3247039D1*
X2127170Y3239854D1*
X2119985Y3237477D1*
X2115232D1*
X2108047Y3239854D1*
X2103294Y3247039D1*
X2100862Y3258977D1*
Y3266162D1*
X2103294Y3278100D1*
X2108047Y3285285D1*
X2115232Y3287662D1*
X2119985D1*
X2103294Y3278100D2*
X2131979Y3247039D1*
X2082991Y3275724D2*
Y3278100D1*
X2080614Y3282909D1*
X2078238Y3285285D1*
X2073429Y3287662D1*
X2063868D1*
X2059115Y3285285D1*
X2056738Y3282909D1*
X2054306Y3278100D1*
Y3273347D1*
X2056738Y3268539D1*
X2061491Y3261409D1*
X2085423Y3237477D1*
X2051930D1*
X2012559D2*
Y3287662D1*
X2036490Y3254224D1*
X2000620D1*
X1946879Y3237477D2*
X1966058Y3287717D1*
X1985181Y3237477D1*
X1977996Y3254224D2*
X1954064D1*
X1917070Y3287662D2*
X1924255Y3285285D1*
X1929064Y3278100D1*
X1931440Y3266162D1*
Y3258977D1*
X1929064Y3247039D1*
X1924255Y3239854D1*
X1917070Y3237477D1*
X1912317D1*
X1905132Y3239854D1*
X1900379Y3247039D1*
X1897947Y3258977D1*
Y3266162D1*
X1900379Y3278100D1*
X1905132Y3285285D1*
X1912317Y3287662D1*
X1917070D1*
X1900379Y3278100D2*
X1929064Y3247039D1*
X1844206Y3237477D2*
X1863384Y3287717D1*
X1882508Y3237477D1*
X1875323Y3254224D2*
X1851391D1*
X1804835Y3237477D2*
Y3287662D1*
X1828767Y3254224D1*
X1792897D1*
X1777457Y3278100D2*
X1772649Y3280532D1*
X1765464Y3287662D1*
Y3237477D1*
X1750025Y3262570D2*
X1722390D1*
X1706951Y3287717D2*
Y3237477D1*
X1673457Y3287717D2*
Y3237477D1*
X1706951Y3263785D2*
X1673457D1*
X1658018Y3287717D2*
X1624525D1*
X1658018Y3237477D1*
X1624525D1*
X1368512Y2740250D2*
X1340877D1*
X1308691Y2765398D2*
Y2715158D1*
X1325438Y2765398D2*
X1291945D1*
X1276506Y2748651D2*
Y2715158D1*
Y2734281D2*
X1274074Y2741466D1*
X1269320Y2746274D1*
X1264512Y2748651D1*
X1257327D1*
X1241888Y2765398D2*
X1239511Y2763021D1*
X1237079Y2765398D1*
X1239511Y2767829D1*
X1241888Y2765398D1*
X1239511Y2748651D2*
Y2715158D1*
X1221640Y2748651D2*
Y2715158D1*
Y2739089D2*
X1214455Y2746274D1*
X1209647Y2748651D1*
X1202517D1*
X1197708Y2746274D1*
X1195332Y2739089D1*
Y2715158D1*
Y2739089D2*
X1188147Y2746274D1*
X1183338Y2748651D1*
X1176208D1*
X1171400Y2746274D1*
X1168968Y2739089D1*
Y2715158D1*
X2019722Y2786779D2*
Y2743724D1*
X2041222Y2765224D2*
X1998167D1*
X1965981Y2790399D2*
Y2740159D1*
X1982728Y2790399D2*
X1949235D1*
X1933795Y2773652D2*
Y2740159D1*
Y2759282D2*
X1931364Y2766467D1*
X1926610Y2771276D1*
X1921802Y2773652D1*
X1914617D1*
X1899178Y2790399D2*
X1896801Y2788022D1*
X1894369Y2790399D1*
X1896801Y2792831D1*
X1899178Y2790399D1*
X1896801Y2773652D2*
Y2740159D1*
X1878930Y2773652D2*
Y2740159D1*
Y2764091D2*
X1871745Y2771276D1*
X1866936Y2773652D1*
X1859807D1*
X1854998Y2771276D1*
X1852622Y2764091D1*
Y2740159D1*
Y2764091D2*
X1845437Y2771276D1*
X1840628Y2773652D1*
X1833498D1*
X1828690Y2771276D1*
X1826258Y2764091D1*
Y2740159D1*
X1821065Y2673051D2*
D58*
Y2650103D1*
X1830659Y2667348D2*
X1811514Y2655851D1*
Y2667348D2*
X1830659Y2655851D1*
X1799163Y2681696D2*
Y2641504D1*
X1785765D1*
X1780017Y2643449D1*
X1776170Y2647252D1*
X1774269Y2651098D1*
X1772368Y2656802D1*
Y2666397D1*
X1774269Y2672145D1*
X1776170Y2675947D1*
X1780017Y2679794D1*
X1785765Y2681696D1*
X1799163D1*
X1750466Y2668298D2*
X1754268Y2666397D1*
X1758115Y2662550D1*
X1760016Y2656802D1*
Y2653000D1*
X1758115Y2647252D1*
X1754268Y2643449D1*
X1750466Y2641504D1*
X1744718D1*
X1740871Y2643449D1*
X1737069Y2647252D1*
X1735123Y2653000D1*
Y2656802D1*
X1737069Y2662550D1*
X1740871Y2666397D1*
X1744718Y2668298D1*
X1750466D1*
X1722772D2*
Y2641504D1*
Y2660649D2*
X1717024Y2666397D1*
X1713177Y2668298D1*
X1707473D1*
X1703626Y2666397D1*
X1701725Y2660649D1*
Y2641504D1*
X1679779Y2681651D2*
X1689374Y2670155D1*
X1677878Y2679750D1*
X1679779Y2681651D1*
X1659778Y2681696D2*
Y2649153D1*
X1657877Y2643449D1*
X1654030Y2641504D1*
X1650228D1*
X1665526Y2668298D2*
X1652129D1*
X1577949Y2662550D2*
X1579850Y2666397D1*
X1585598Y2668298D1*
X1591346D1*
X1597094Y2666397D1*
X1598995Y2662550D1*
X1597094Y2658748D1*
X1593247Y2656802D1*
X1583697Y2654901D1*
X1579850Y2653000D1*
X1577949Y2649153D1*
Y2647252D1*
X1579850Y2643449D1*
X1585598Y2641504D1*
X1591346D1*
X1597094Y2643449D1*
X1598995Y2647252D1*
X1556047Y2668298D2*
X1559849Y2666397D1*
X1563696Y2662550D1*
X1565597Y2656802D1*
Y2653000D1*
X1563696Y2647252D1*
X1559849Y2643449D1*
X1556047Y2641504D1*
X1550299D1*
X1546452Y2643449D1*
X1542649Y2647252D1*
X1540704Y2653000D1*
Y2656802D1*
X1542649Y2662550D1*
X1546452Y2666397D1*
X1550299Y2668298D1*
X1556047D1*
X1528353Y2681696D2*
Y2641504D1*
X1493053Y2681696D2*
Y2641504D1*
Y2662550D2*
X1496856Y2666397D1*
X1500703Y2668298D1*
X1506451D1*
X1510253Y2666397D1*
X1514100Y2662550D1*
X1516001Y2656802D1*
Y2653000D1*
X1514100Y2647252D1*
X1510253Y2643449D1*
X1506451Y2641504D1*
X1500703D1*
X1496856Y2643449D1*
X1493053Y2647252D1*
X1480702Y2656802D2*
X1457754D1*
Y2660649D1*
X1459655Y2664496D1*
X1461557Y2666397D1*
X1465403Y2668298D1*
X1471151D1*
X1474954Y2666397D1*
X1478801Y2662550D1*
X1480702Y2656802D1*
Y2653000D1*
X1478801Y2647252D1*
X1474954Y2643449D1*
X1471151Y2641504D1*
X1465403D1*
X1461557Y2643449D1*
X1457754Y2647252D1*
X1445403Y2668298D2*
Y2641504D1*
Y2656802D2*
X1443457Y2662550D1*
X1439655Y2666397D1*
X1435808Y2668298D1*
X1430060D1*
X1378828Y2681696D2*
Y2641504D1*
X1361583D1*
X1355835Y2643449D1*
X1353934Y2645350D1*
X1352033Y2649153D1*
Y2654901D1*
X1353934Y2658748D1*
X1355835Y2660649D1*
X1361583Y2662550D1*
X1355835Y2664496D1*
X1353934Y2666397D1*
X1352033Y2670199D1*
Y2674046D1*
X1353934Y2677849D1*
X1355835Y2679794D1*
X1361583Y2681696D1*
X1378828D1*
Y2662550D2*
X1361583D1*
X1330131Y2668298D2*
X1333933Y2666397D1*
X1337780Y2662550D1*
X1339682Y2656802D1*
Y2653000D1*
X1337780Y2647252D1*
X1333933Y2643449D1*
X1330131Y2641504D1*
X1324383D1*
X1320536Y2643449D1*
X1316734Y2647252D1*
X1314788Y2653000D1*
Y2656802D1*
X1316734Y2662550D1*
X1320536Y2666397D1*
X1324383Y2668298D1*
X1330131D1*
X1296689Y2681696D2*
Y2649153D1*
X1294787Y2643449D1*
X1290941Y2641504D1*
X1287138D1*
X1302437Y2668298D2*
X1289039D1*
X1274787Y2681696D2*
Y2641504D1*
Y2660649D2*
X1269039Y2666397D1*
X1265192Y2668298D1*
X1259444D1*
X1255641Y2666397D1*
X1253740Y2660649D1*
Y2641504D1*
X731424Y3443634D2*
D59*
X602259D1*
X666759Y3379135D2*
Y3508299D1*
X742119Y3659971D2*
Y3588342D1*
X677619Y3581212D1*
X684749Y3588342D1*
X692045Y3609897D1*
Y3631286D1*
X684749Y3652841D1*
X670490Y3667266D1*
X648934Y3674396D1*
X634675D1*
X613120Y3667266D1*
X598694Y3652841D1*
X591565Y3631286D1*
Y3609897D1*
X598694Y3588342D1*
X605990Y3581212D1*
X620250Y3573916D1*
X693970Y2810952D2*
X708230Y2803822D1*
X722655Y2789397D1*
X729785Y2775137D1*
Y2746452D1*
X722655Y2732027D1*
X708230Y2717768D1*
X693970Y2710472D1*
X672415Y2703342D1*
X636434D1*
X615045Y2710472D1*
X600620Y2717768D1*
X586360Y2732027D1*
X579065Y2746453D1*
Y2775137D1*
X586360Y2789397D1*
X600620Y2803822D1*
X615045Y2810952D1*
X636434D1*
Y2775137D1*
X729785Y2977049D2*
X579065D1*
X729785Y2876569D1*
X579065D1*
X729785Y3042666D2*
X579065D1*
Y3092906D1*
X586360Y3114461D1*
X600620Y3128886D1*
X615045Y3136016D1*
X636434Y3143146D1*
X672415D1*
X693970Y3136016D1*
X708230Y3128886D1*
X722655Y3114461D1*
X729785Y3092906D1*
Y3042666D1*
X3438832Y3844655D2*
D60*
X3432996Y3833114D1*
X3415884Y3815870D1*
X3536328D1*
X3415884Y3734725D2*
X3421588Y3751837D1*
X3432996Y3757673D1*
X3444536D1*
X3455944Y3751837D1*
X3461780Y3740429D1*
X3467484Y3717481D1*
X3473188Y3700237D1*
X3484728Y3688829D1*
X3496136Y3683126D1*
X3513380D1*
X3524787Y3688829D1*
X3530624Y3694533D1*
X3536328Y3711777D1*
Y3734725D1*
X3530624Y3751837D1*
X3524787Y3757673D1*
X3513380Y3763377D1*
X3496136D1*
X3484728Y3757673D1*
X3473188Y3746133D1*
X3467484Y3729021D1*
X3461780Y3706074D1*
X3455944Y3694533D1*
X3444536Y3688829D1*
X3432996D1*
X3421588Y3694533D1*
X3415884Y3711777D1*
Y3734725D1*
X3476106Y3630632D2*
Y3564309D1*
X3536328Y3488867D2*
X3415884Y3431431D1*
Y3511815D1*
Y3310094D2*
Y3367398D1*
X3467484Y3373101D1*
X3461780Y3367398D1*
X3455944Y3350154D1*
Y3333042D1*
X3461780Y3315798D1*
X3473188Y3304258D1*
X3490432Y3298554D1*
X3501839D1*
X3519084Y3304258D1*
X3530624Y3315798D1*
X3536328Y3333042D1*
Y3350154D1*
X3530624Y3367398D1*
X3524787Y3373101D1*
X3513380Y3378938D1*
X3444403Y3026566D2*
X3432996Y3032270D1*
X3421455Y3043810D1*
X3415752Y3055218D1*
Y3078166D1*
X3421455Y3089706D1*
X3432996Y3101113D1*
X3444403Y3106950D1*
X3461647Y3112654D1*
X3490432D1*
X3507543Y3106950D1*
X3519084Y3101113D1*
X3530491Y3089706D1*
X3536328Y3078166D1*
Y3055218D1*
X3530491Y3043810D1*
X3519084Y3032270D1*
X3507543Y3026566D1*
X3490432D1*
Y3055218D1*
X3415752Y2893689D2*
X3536328Y2893688D1*
X3415752Y2974073D1*
X3536328Y2974072D1*
X3415752Y2841195D2*
X3536328D1*
Y2801003D1*
X3530491Y2783759D1*
X3519084Y2772219D1*
X3507543Y2766515D1*
X3490432Y2760811D1*
X3461647D1*
X3444403Y2766515D1*
X3432996Y2772219D1*
X3421455Y2783759D1*
X3415752Y2801003D1*
Y2841195D1*
X2486360Y3819197D2*
D58*
Y3779005D1*
X2472963D1*
X2467215Y3780950D1*
X2463368Y3784753D1*
X2461467Y3788600D1*
X2459566Y3794303D1*
Y3803898D1*
X2461467Y3809646D1*
X2463368Y3813449D1*
X2467215Y3817296D1*
X2472963Y3819197D1*
X2486360D1*
X2447214Y3794303D2*
X2424266D1*
Y3798150D1*
X2426168Y3801997D1*
X2428069Y3803898D1*
X2431916Y3805799D1*
X2437664D1*
X2441466Y3803898D1*
X2445313Y3800051D1*
X2447214Y3794303D1*
Y3790501D1*
X2445313Y3784753D1*
X2441466Y3780950D1*
X2437664Y3779005D1*
X2431916D1*
X2428069Y3780950D1*
X2424266Y3784753D1*
X2390868Y3800051D2*
X2392770Y3803898D1*
X2398518Y3805799D1*
X2404266D1*
X2410014Y3803898D1*
X2411915Y3800051D1*
X2410014Y3796249D1*
X2406167Y3794303D1*
X2396616Y3792402D1*
X2392770Y3790501D1*
X2390868Y3786654D1*
Y3784753D1*
X2392770Y3780950D1*
X2398518Y3779005D1*
X2404266D1*
X2410014Y3780950D1*
X2411915Y3784753D1*
X2378517Y3819197D2*
X2376616Y3817296D1*
X2374670Y3819197D1*
X2376616Y3821142D1*
X2378517Y3819197D1*
X2376616Y3805799D2*
Y3779005D1*
X2339371Y3803898D2*
Y3773257D1*
X2341272Y3767553D1*
X2343173Y3765607D1*
X2347020Y3763706D1*
X2352768D1*
X2356571Y3765607D1*
X2339371Y3798150D2*
X2343173Y3801953D1*
X2347020Y3803898D1*
X2352768D1*
X2356571Y3801953D1*
X2360418Y3798150D1*
X2362319Y3792402D1*
Y3788555D1*
X2360418Y3782852D1*
X2356571Y3779005D1*
X2352768Y3777104D1*
X2347020D1*
X2343173Y3779005D1*
X2339371Y3782852D1*
X2327019Y3805799D2*
Y3779005D1*
Y3798150D2*
X2321271Y3803898D1*
X2317425Y3805799D1*
X2311721D1*
X2307874Y3803898D1*
X2305973Y3798150D1*
Y3779005D1*
X2293621Y3794303D2*
X2270674D1*
Y3798150D1*
X2272575Y3801997D1*
X2274476Y3803898D1*
X2278323Y3805799D1*
X2284071D1*
X2287873Y3803898D1*
X2291720Y3800051D1*
X2293621Y3794303D1*
Y3790501D1*
X2291720Y3784753D1*
X2287873Y3780950D1*
X2284071Y3779005D1*
X2278323D1*
X2274476Y3780950D1*
X2270674Y3784753D1*
X2235374Y3819197D2*
Y3779005D1*
Y3800051D2*
X2239177Y3803898D1*
X2243024Y3805799D1*
X2248772D1*
X2252574Y3803898D1*
X2256421Y3800051D1*
X2258322Y3794303D1*
Y3790501D1*
X2256421Y3784753D1*
X2252574Y3780950D1*
X2248772Y3779005D1*
X2243024D1*
X2239177Y3780950D1*
X2235374Y3784753D1*
X2184142Y3819197D2*
Y3779005D1*
X2166898D1*
X2161150Y3780950D1*
X2159249Y3782852D1*
X2157347Y3786654D1*
Y3792402D1*
X2159249Y3796249D1*
X2161150Y3798150D1*
X2166898Y3800051D1*
X2161150Y3801997D1*
X2159249Y3803898D1*
X2157347Y3807701D1*
Y3811548D1*
X2159249Y3815350D1*
X2161150Y3817296D1*
X2166898Y3819197D1*
X2184142D1*
Y3800051D2*
X2166898D1*
X2143051Y3805799D2*
X2131599Y3779005D1*
X2135401Y3771356D1*
X2139248Y3767509D1*
X2143051Y3765607D1*
X2144996D1*
X2120103Y3805799D2*
X2131599Y3779005D1*
X2038229D2*
X2053572Y3819197D1*
X2068870Y3779005D1*
X2063122Y3792402D2*
X2043977D1*
X2025878Y3819197D2*
Y3779005D1*
X2013526Y3794303D2*
X1990578D1*
Y3798150D1*
X1992480Y3801997D1*
X1994381Y3803898D1*
X1998228Y3805799D1*
X2003976D1*
X2007778Y3803898D1*
X2011625Y3800051D1*
X2013526Y3794303D1*
Y3790501D1*
X2011625Y3784753D1*
X2007778Y3780950D1*
X2003976Y3779005D1*
X1998228D1*
X1994381Y3780950D1*
X1990578Y3784753D1*
X1978227Y3805799D2*
X1957180Y3779005D1*
Y3805799D2*
X1978227Y3779005D1*
X1905948Y3819197D2*
X1896353Y3779005D1*
X1886803Y3819197D1*
X1877252Y3779005D1*
X1867657Y3819197D1*
X1845755Y3805799D2*
X1849558Y3803898D1*
X1853405Y3800051D1*
X1855306Y3794303D1*
Y3790501D1*
X1853405Y3784753D1*
X1849558Y3780950D1*
X1845755Y3779005D1*
X1840007D1*
X1836161Y3780950D1*
X1832358Y3784753D1*
X1830413Y3790501D1*
Y3794303D1*
X1832358Y3800051D1*
X1836161Y3803898D1*
X1840007Y3805799D1*
X1845755D1*
X1808511D2*
X1812313Y3803898D1*
X1816160Y3800051D1*
X1818061Y3794303D1*
Y3790501D1*
X1816160Y3784753D1*
X1812313Y3780950D1*
X1808511Y3779005D1*
X1802763D1*
X1798916Y3780950D1*
X1795113Y3784753D1*
X1793168Y3790501D1*
Y3794303D1*
X1795113Y3800051D1*
X1798916Y3803898D1*
X1802763Y3805799D1*
X1808511D1*
X1757868Y3819197D2*
Y3779005D1*
Y3800051D2*
X1761671Y3803898D1*
X1765518Y3805799D1*
X1771266D1*
X1775068Y3803898D1*
X1778915Y3800051D1*
X1780816Y3794303D1*
Y3790501D1*
X1778915Y3784753D1*
X1775068Y3780950D1*
X1771266Y3779005D1*
X1765518D1*
X1761671Y3780950D1*
X1757868Y3784753D1*
X1745517Y3805799D2*
Y3779005D1*
Y3798150D2*
X1739769Y3803898D1*
X1735922Y3805799D1*
X1730218D1*
X1726372Y3803898D1*
X1724470Y3798150D1*
Y3779005D1*
Y3798150D2*
X1718722Y3803898D1*
X1714876Y3805799D1*
X1709172D1*
X1705325Y3803898D1*
X1703380Y3798150D1*
Y3779005D1*
X1668080Y3805799D2*
Y3779005D1*
Y3800051D2*
X1671883Y3803898D1*
X1675730Y3805799D1*
X1681433D1*
X1685280Y3803898D1*
X1689083Y3800051D1*
X1691028Y3794303D1*
Y3790501D1*
X1689083Y3784753D1*
X1685280Y3780950D1*
X1681433Y3779005D1*
X1675730D1*
X1671883Y3780950D1*
X1668080Y3784753D1*
X1655729Y3805799D2*
Y3779005D1*
Y3798150D2*
X1649981Y3803898D1*
X1646134Y3805799D1*
X1640430D1*
X1636583Y3803898D1*
X1634682Y3798150D1*
Y3779005D1*
X1601284Y3800051D2*
X1603185Y3803898D1*
X1608933Y3805799D1*
X1614682D1*
X1620430Y3803898D1*
X1622331Y3800051D1*
X1620430Y3796249D1*
X1616583Y3794303D1*
X1607032Y3792402D1*
X1603185Y3790501D1*
X1601284Y3786654D1*
Y3784753D1*
X1603185Y3780950D1*
X1608933Y3779005D1*
X1614682D1*
X1620430Y3780950D1*
X1622331Y3784753D1*
X1588933Y3794303D2*
X1565985D1*
Y3798150D1*
X1567886Y3801997D1*
X1569787Y3803898D1*
X1573634Y3805799D1*
X1579382D1*
X1583185Y3803898D1*
X1587032Y3800051D1*
X1588933Y3794303D1*
Y3790501D1*
X1587032Y3784753D1*
X1583185Y3780950D1*
X1579382Y3779005D1*
X1573634D1*
X1569787Y3780950D1*
X1565985Y3784753D1*
X1551688Y3805799D2*
X1540236Y3779005D1*
X1544039Y3771356D1*
X1547885Y3767509D1*
X1551688Y3765607D1*
X1553633D1*
X1528740Y3805799D2*
X1540236Y3779005D1*
M02*
