M48
INCH
T01C0.0413
T02C0.062
T03C0.087
T04C0.0984
T05C0.1654
%
T01
X+024162Y+001187
X+023162Y+001187
X+022162Y+001187
X+021162Y+001187
X+017772Y+001344
X+015803Y+001344
X+016787Y+003313
X+017772Y+014336
X+015803Y+014336
X+016787Y+016305
X+021162Y+014180
X+022162Y+014180
X+023162Y+014180
X+024162Y+014180
X+024162Y+027172
X+023162Y+027172
X+022162Y+027172
X+021162Y+027172
X+017772Y+027328
X+015803Y+027328
X+016787Y+029297
X+004725Y+028779
X+002756Y+030157
X+004725Y+031535
X+002756Y+032913
X+004725Y+034291
X+002756Y+035669
X+004725Y+037047
X+002756Y+027401
X+004725Y+024055
X+002756Y+022677
X+004725Y+021299
X+002756Y+019921
X+004725Y+018543
X+002756Y+017165
X+004725Y+015787
X+002756Y+014409
X+004725Y+011062
X+002756Y+009685
X+004725Y+008307
X+002756Y+006929
X+004725Y+005551
X+002756Y+004173
X+004725Y+002795
X+002756Y+001417
T02
X+031700Y+009563
X+031700Y+006563
X+031700Y+003563
X+031700Y+016555
X+031700Y+019555
X+031700Y+022555
X+031700Y+029547
X+031700Y+032547
X+031700Y+035547
X+011700Y+034047
X+011700Y+032547
X+011700Y+031047
X+011700Y+021055
X+011700Y+019555
X+011700Y+018055
X+011700Y+008063
X+011700Y+006563
X+011700Y+005063
T03
X+011700Y+009563
X+011700Y+003563
X+011700Y+016555
X+011700Y+022555
X+011700Y+029547
X+011700Y+035547
T04
X+008725Y+006250
X+008725Y+008219
X+008725Y+009793
X+008725Y+011762
X+008725Y+019242
X+008725Y+021211
X+008725Y+022785
X+008725Y+024754
X+008725Y+032234
X+008725Y+034203
X+008725Y+035778
X+008725Y+037746
T05
X+037225Y+011313
X+037225Y+008313
X+037225Y+004687
X+037225Y+001687
X+037225Y+014680
X+037225Y+017680
X+037225Y+021305
X+037225Y+024305
X+037225Y+027672
X+037225Y+030672
X+037225Y+034297
X+037225Y+037297
T00
M30
