G04 DipTrace 3.2.0.1*
G04 TopMask.GTS*
%MOIN*%
G04 #@! TF.FileFunction,Soldermask,Top*
G04 #@! TF.Part,Single*
%AMOUTLINE0*
4,1,8,
0.030488,-0.012629,
0.012629,-0.030488,
-0.012629,-0.030488,
-0.030488,-0.012629,
-0.030488,0.012629,
-0.012629,0.030488,
0.012629,0.030488,
0.030488,0.012629,
0.030488,-0.012629,
0*%
%AMOUTLINE2*
4,1,20,
0.0,0.074835,
0.028382,0.071238,
0.054082,0.060763,
0.074635,0.04432,
0.087965,0.02339,
0.092596,0.0,
0.087965,-0.02339,
0.074635,-0.04432,
0.054082,-0.060763,
0.028382,-0.071238,
0.0,-0.074835,
-0.028382,-0.071238,
-0.054082,-0.060763,
-0.074635,-0.04432,
-0.087965,-0.02339,
-0.092596,0.0,
-0.087965,0.02339,
-0.074635,0.04432,
-0.054082,0.060763,
-0.028382,0.071238,
0.0,0.074835,
0*%
%ADD26R,0.063X0.046*%
%ADD27R,0.008X0.025*%
%ADD43C,0.070866*%
%ADD45C,0.157874*%
%ADD47C,0.096457*%
%ADD49C,0.125984*%
%ADD51C,0.244094*%
%ADD53C,0.074803*%
%ADD55R,0.074803X0.074803*%
%ADD65OUTLINE0*%
%ADD67OUTLINE2*%
%FSLAX26Y26*%
G04*
G70*
G90*
G75*
G01*
G04 TopMask*
%LPD*%
D55*
X2416240Y118749D3*
D53*
X2316240D3*
X2216240D3*
X2116240D3*
D51*
X3722490Y1131251D3*
Y831251D3*
Y468749D3*
Y168749D3*
D49*
X3169980Y956251D3*
Y656251D3*
Y356251D3*
D47*
X1169980Y656251D3*
Y506251D3*
Y806251D3*
D45*
Y956251D3*
Y356251D3*
D43*
X472490Y1106249D3*
X275640Y968454D3*
X472490Y830659D3*
X275640Y692864D3*
X472490Y555068D3*
X275640Y417273D3*
X472490Y279478D3*
X275640Y141682D3*
G36*
X1484720Y833246D2*
X1412720D1*
Y839252D1*
X1484720D1*
Y833246D1*
G37*
D26*
X1448720Y806249D3*
Y866249D3*
D27*
Y836249D3*
G36*
X1484720Y483248D2*
X1412720D1*
Y489254D1*
X1484720D1*
Y483248D1*
G37*
D26*
X1448720Y456251D3*
Y516251D3*
D27*
Y486251D3*
G36*
X3083490Y508248D2*
X3011490D1*
Y514254D1*
X3083490D1*
Y508248D1*
G37*
D26*
X3047490Y481251D3*
Y541251D3*
D27*
Y511251D3*
D65*
X1678740Y331251D3*
X1777165Y134400D3*
X1580315D3*
D67*
X872490Y625000D3*
Y821850D3*
Y979331D3*
Y1176181D3*
G36*
X3572490Y618751D2*
X3872490D1*
Y43749D1*
X3572490D1*
Y618751D1*
G37*
G36*
Y1256251D2*
X3872490D1*
Y693749D1*
X3572490D1*
Y1256251D1*
G37*
D55*
X2416240Y1417962D3*
D53*
X2316240D3*
X2216240D3*
X2116240D3*
D51*
X3722490Y2430463D3*
Y2130463D3*
Y1767962D3*
Y1467962D3*
D49*
X3169980Y2255463D3*
Y1955463D3*
Y1655463D3*
D47*
X1169980Y1955463D3*
Y1805463D3*
Y2105463D3*
D45*
Y2255463D3*
Y1655463D3*
D43*
X472490Y2405462D3*
X275640Y2267667D3*
X472490Y2129871D3*
X275640Y1992076D3*
X472490Y1854281D3*
X275640Y1716486D3*
X472490Y1578690D3*
X275640Y1440895D3*
G36*
X1484720Y2132459D2*
X1412720D1*
Y2138465D1*
X1484720D1*
Y2132459D1*
G37*
D26*
X1448720Y2105462D3*
Y2165462D3*
D27*
Y2135462D3*
G36*
X1484720Y1782460D2*
X1412720D1*
Y1788466D1*
X1484720D1*
Y1782460D1*
G37*
D26*
X1448720Y1755463D3*
Y1815463D3*
D27*
Y1785463D3*
G36*
X3083490Y1807460D2*
X3011490D1*
Y1813466D1*
X3083490D1*
Y1807460D1*
G37*
D26*
X3047490Y1780463D3*
Y1840463D3*
D27*
Y1810463D3*
D65*
X1678740Y1630463D3*
X1777165Y1433613D3*
X1580315D3*
D67*
X872490Y1924213D3*
Y2121063D3*
Y2278543D3*
Y2475394D3*
G36*
X3572490Y1917963D2*
X3872490D1*
Y1342962D1*
X3572490D1*
Y1917963D1*
G37*
G36*
Y2555463D2*
X3872490D1*
Y1992962D1*
X3572490D1*
Y2555463D1*
G37*
D55*
X2416240Y2717175D3*
D53*
X2316240D3*
X2216240D3*
X2116240D3*
D51*
X3722490Y3729676D3*
Y3429676D3*
Y3067175D3*
Y2767175D3*
D49*
X3169980Y3554676D3*
Y3254676D3*
Y2954676D3*
D47*
X1169980Y3254676D3*
Y3104676D3*
Y3404676D3*
D45*
Y3554676D3*
Y2954676D3*
D43*
X472490Y3704675D3*
X275640Y3566879D3*
X472490Y3429084D3*
X275640Y3291289D3*
X472490Y3153493D3*
X275640Y3015698D3*
X472490Y2877903D3*
X275640Y2740108D3*
G36*
X1484720Y3431672D2*
X1412720D1*
Y3437678D1*
X1484720D1*
Y3431672D1*
G37*
D26*
X1448720Y3404675D3*
Y3464675D3*
D27*
Y3434675D3*
G36*
X1484720Y3081673D2*
X1412720D1*
Y3087679D1*
X1484720D1*
Y3081673D1*
G37*
D26*
X1448720Y3054676D3*
Y3114676D3*
D27*
Y3084676D3*
G36*
X3083490Y3106673D2*
X3011490D1*
Y3112679D1*
X3083490D1*
Y3106673D1*
G37*
D26*
X3047490Y3079676D3*
Y3139676D3*
D27*
Y3109676D3*
D65*
X1678740Y2929676D3*
X1777165Y2732825D3*
X1580315D3*
D67*
X872490Y3223425D3*
Y3420276D3*
Y3577756D3*
Y3774606D3*
G36*
X3572490Y3217176D2*
X3872490D1*
Y2642175D1*
X3572490D1*
Y3217176D1*
G37*
G36*
Y3854676D2*
X3872490D1*
Y3292175D1*
X3572490D1*
Y3854676D1*
G37*
M02*
