G04 DipTrace 3.2.0.1*
G04 BottomMask.GBS*
%MOIN*%
G04 #@! TF.FileFunction,Soldermask,Bot*
G04 #@! TF.Part,Single*
%ADD33C,0.066929*%
%ADD34R,0.046X0.063*%
%ADD35C,0.11811*%
%ADD46C,0.070866*%
%ADD50R,0.070866X0.070866*%
%ADD51R,0.055118X0.055118*%
%ADD52C,0.055118*%
%ADD53C,0.125984*%
%ADD63O,0.122047X0.106299*%
%ADD65C,0.157874*%
%ADD67C,0.096457*%
%ADD69C,0.125984*%
%ADD71C,0.074803*%
%ADD73R,0.074803X0.074803*%
%FSLAX26Y26*%
G04*
G70*
G90*
G75*
G01*
G04 BotMask*
%LPD*%
D52*
X743110Y550000D3*
D51*
X664370D3*
D73*
X2378740Y112500D3*
D71*
X2278740D3*
X2178740D3*
X2078740D3*
X1978740D3*
D69*
X3001231Y956251D3*
Y656251D3*
Y356251D3*
D67*
X1001231Y656251D3*
Y506251D3*
Y806251D3*
D65*
Y956251D3*
Y356251D3*
D63*
X197491Y1187500D3*
X727806D3*
X197491Y1053642D3*
X727806D3*
D33*
X1491240Y331251D3*
X1589665Y134400D3*
X1392815D3*
G36*
X1255737Y179749D2*
X1261743D1*
Y107749D1*
X1255737D1*
Y179749D1*
G37*
D34*
X1228740Y143749D3*
X1288740D3*
G36*
X1739243Y45251D2*
X1733237D1*
Y117251D1*
X1739243D1*
Y45251D1*
G37*
D34*
X1766240Y81251D3*
X1706240D3*
D63*
X197491Y837500D3*
X727806D3*
X197491Y703642D3*
X727806D3*
D53*
X684990Y387500D3*
Y222146D3*
X468454Y383563D3*
Y218209D3*
D35*
X180906Y300886D3*
D53*
X3472491Y200000D3*
X3172491D3*
X3472491Y500000D3*
X3172491D3*
X3472491Y800000D3*
X3172491D3*
X3472491Y1100000D3*
X3172491D3*
D52*
X322491Y256251D3*
D51*
Y334991D3*
D52*
X3222491Y606251D3*
D51*
Y684991D3*
D46*
X3378740Y550000D3*
D50*
Y750000D3*
D52*
X743110Y1849213D3*
D51*
X664370D3*
D73*
X2378740Y1411713D3*
D71*
X2278740D3*
X2178740D3*
X2078740D3*
X1978740D3*
D69*
X3001231Y2255463D3*
Y1955463D3*
Y1655463D3*
D67*
X1001231Y1955463D3*
Y1805463D3*
Y2105463D3*
D65*
Y2255463D3*
Y1655463D3*
D63*
X197491Y2486713D3*
X727806D3*
X197491Y2352854D3*
X727806D3*
D33*
X1491240Y1630463D3*
X1589665Y1433613D3*
X1392815D3*
G36*
X1255737Y1478962D2*
X1261743D1*
Y1406962D1*
X1255737D1*
Y1478962D1*
G37*
D34*
X1228740Y1442962D3*
X1288740D3*
G36*
X1739243Y1344463D2*
X1733237D1*
Y1416463D1*
X1739243D1*
Y1344463D1*
G37*
D34*
X1766240Y1380463D3*
X1706240D3*
D63*
X197491Y2136713D3*
X727806D3*
X197491Y2002854D3*
X727806D3*
D53*
X684990Y1686713D3*
Y1521358D3*
X468454Y1682776D3*
Y1517421D3*
D35*
X180906Y1600098D3*
D53*
X3472491Y1499213D3*
X3172491D3*
X3472491Y1799213D3*
X3172491D3*
X3472491Y2099213D3*
X3172491D3*
X3472491Y2399213D3*
X3172491D3*
D52*
X322491Y1555463D3*
D51*
Y1634203D3*
D52*
X3222491Y1905463D3*
D51*
Y1984203D3*
D46*
X3378740Y1849213D3*
D50*
Y2049213D3*
D52*
X743110Y3148425D3*
D51*
X664370D3*
D73*
X2378740Y2710925D3*
D71*
X2278740D3*
X2178740D3*
X2078740D3*
X1978740D3*
D69*
X3001231Y3554676D3*
Y3254676D3*
Y2954676D3*
D67*
X1001231Y3254676D3*
Y3104676D3*
Y3404676D3*
D65*
Y3554676D3*
Y2954676D3*
D63*
X197491Y3785925D3*
X727806D3*
X197491Y3652067D3*
X727806D3*
D33*
X1491240Y2929676D3*
X1589665Y2732825D3*
X1392815D3*
G36*
X1255737Y2778175D2*
X1261743D1*
Y2706175D1*
X1255737D1*
Y2778175D1*
G37*
D34*
X1228740Y2742175D3*
X1288740D3*
G36*
X1739243Y2643676D2*
X1733237D1*
Y2715676D1*
X1739243D1*
Y2643676D1*
G37*
D34*
X1766240Y2679676D3*
X1706240D3*
D63*
X197491Y3435925D3*
X727806D3*
X197491Y3302067D3*
X727806D3*
D53*
X684990Y2985925D3*
Y2820571D3*
X468454Y2981988D3*
Y2816634D3*
D35*
X180906Y2899311D3*
D53*
X3472491Y2798425D3*
X3172491D3*
X3472491Y3098425D3*
X3172491D3*
X3472491Y3398425D3*
X3172491D3*
X3472491Y3698425D3*
X3172491D3*
D52*
X322491Y2854676D3*
D51*
Y2933416D3*
D52*
X3222491Y3204676D3*
D51*
Y3283416D3*
D46*
X3378740Y3148425D3*
D50*
Y3348425D3*
M02*
