M48
INCH
T01C0.0126
T02C0.0236
T03C0.0433
T04C0.062
T05C0.063
T06C0.0709
T07C0.087
T08C0.1181
%
T01
X+027950Y+005413
X+027037Y+007250
X+025412Y+002875
X+025412Y+015867
X+027950Y+018405
X+027037Y+020242
X+025412Y+028859
X+027950Y+031397
X+027037Y+033234
T02
X+007431Y+005500
X+006644Y+005500
X+003225Y+003350
X+003225Y+002563
X+003225Y+015555
X+003225Y+016342
X+006644Y+018492
X+007431Y+018492
X+003225Y+028547
X+003225Y+029334
X+006644Y+031484
X+007431Y+031484
X+032225Y+032047
X+032225Y+032834
X+032225Y+019842
X+032225Y+019055
X+032225Y+006850
X+032225Y+006063
T03
X+023787Y+001125
X+022787Y+001125
X+021787Y+001125
X+020787Y+001125
X+019787Y+001125
X+015897Y+001344
X+013928Y+001344
X+014912Y+003313
X+015897Y+014336
X+013928Y+014336
X+014912Y+016305
X+019787Y+014117
X+020787Y+014117
X+021787Y+014117
X+022787Y+014117
X+023787Y+014117
X+033787Y+018492
X+033787Y+020492
X+033787Y+031484
X+033787Y+033484
X+023787Y+027109
X+022787Y+027109
X+021787Y+027109
X+020787Y+027109
X+019787Y+027109
X+015897Y+027328
X+013928Y+027328
X+014912Y+029297
X+033787Y+007500
X+033787Y+005500
T04
X+030012Y+009563
X+030012Y+006563
X+030012Y+003563
X+030012Y+016555
X+030012Y+019555
X+030012Y+022555
X+030012Y+029547
X+030012Y+032547
X+030012Y+035547
X+010012Y+034047
X+010012Y+032547
X+010012Y+031047
X+010012Y+021055
X+010012Y+019555
X+010012Y+018055
X+010012Y+008063
X+010012Y+006563
X+010012Y+005063
T05
X+001975Y+011875
X+001975Y+010536
X+001975Y+008375
X+001975Y+007036
X+007278Y+007036
X+007278Y+008375
X+007278Y+010536
X+007278Y+011875
X+007278Y+020029
X+007278Y+021367
X+007278Y+023529
X+007278Y+024867
X+001975Y+024867
X+001975Y+023529
X+001975Y+021367
X+001975Y+020029
X+001975Y+033021
X+001975Y+034359
X+001975Y+036521
X+001975Y+037859
X+007278Y+037859
X+007278Y+036521
X+007278Y+034359
X+007278Y+033021
X+031725Y+033984
X+031725Y+030984
X+031725Y+027984
X+034725Y+027984
X+034725Y+030984
X+034725Y+033984
X+034725Y+036984
X+031725Y+036984
X+031725Y+023992
X+031725Y+020992
X+031725Y+017992
X+034725Y+017992
X+034725Y+020992
X+034725Y+023992
X+034725Y+014992
X+031725Y+014992
X+031725Y+011000
X+034725Y+011000
X+034725Y+008000
X+034725Y+005000
X+031725Y+005000
X+031725Y+008000
X+031725Y+002000
X+034725Y+002000
T06
X+006850Y+003875
X+006850Y+002221
X+004685Y+002182
X+004685Y+003836
X+004685Y+015174
X+004685Y+016828
X+006850Y+016867
X+006850Y+015214
X+006850Y+028206
X+006850Y+029859
X+004685Y+029820
X+004685Y+028166
T07
X+010012Y+009563
X+010012Y+003563
X+010012Y+016555
X+010012Y+022555
X+010012Y+029547
X+010012Y+035547
T08
X+001809Y+003009
X+001809Y+016001
X+001809Y+028993
T00
M30
