G04 DipTrace 3.2.0.1*
G04 Top.GTL*
%MOIN*%
G04 #@! TF.FileFunction,Copper,L1,Top*
G04 #@! TF.Part,Single*
G04 #@! TA.AperFunction,Conductor*
%ADD14C,0.019685*%
%ADD15C,0.012992*%
%ADD16C,0.03937*%
G04 #@! TA.AperFunction,CopperBalancing*
%ADD17C,0.025*%
%ADD18R,0.070866X0.062992*%
G04 #@! TA.AperFunction,ComponentPad*
%ADD19C,0.047244*%
%ADD20R,0.047244X0.047244*%
%ADD21R,0.066929X0.066929*%
%ADD22C,0.066929*%
%ADD23C,0.11811*%
%ADD24C,0.088583*%
%ADD25C,0.15*%
%ADD26O,0.114173X0.098425*%
%ADD29R,0.063X0.046*%
%ADD30R,0.008X0.025*%
G04 #@! TA.AperFunction,ComponentPad*
%ADD33C,0.066929*%
%ADD35C,0.11811*%
%ADD36C,0.062992*%
%ADD37R,0.062992X0.062992*%
%ADD39R,0.070866X0.173228*%
G04 #@! TA.AperFunction,ViaPad*
%ADD40C,0.027559*%
%FSLAX26Y26*%
G04*
G70*
G90*
G75*
G01*
G04 Top*
%LPD*%
X1261220Y866249D2*
D14*
X1196219Y931251D1*
X1001231D1*
Y956251D1*
X1261220Y456251D2*
X1141241D1*
X1053740Y368749D1*
X1001231D1*
Y356251D1*
X1261220Y806249D2*
Y806251D1*
X1001231D1*
X1261220Y806249D2*
X1403740D1*
X2078740Y131249D1*
Y112500D1*
X1261220Y516251D2*
X1574990D1*
X1978740Y112500D1*
X1261220Y516251D2*
D15*
X1011231D1*
X1001231Y506251D1*
X3001231Y656251D2*
D14*
Y591240D1*
X2951241Y541251D1*
X2859991D1*
X2794991D1*
X2541240Y287500D2*
X2266240D1*
X2178740Y200000D1*
Y112500D1*
X2859991Y356251D2*
X3001231D1*
X2278740Y112500D2*
Y187500D1*
X2328740Y237500D1*
X2603740D1*
X2722491Y356251D1*
X3001231D1*
X2703740Y550000D2*
D16*
Y481251D1*
X2859991D1*
X2422236Y556192D2*
X2428428Y550000D1*
X2703740D1*
X2109769Y612436D2*
X2166013Y556192D1*
X2422236D1*
X2859991Y481251D2*
X2984991Y356251D1*
X3001231D1*
X2703740Y903987D2*
X2948967D1*
X3001231Y956251D1*
X2422236Y847530D2*
X2382360D1*
X2438816Y903987D1*
X2703740D1*
X2109769Y722672D2*
Y781168D1*
X2176131Y847530D1*
X2422236D1*
X2703740Y660236D2*
D14*
Y725000D1*
Y793751D1*
D40*
X2794991Y541251D3*
X2541240Y287500D3*
X2703740Y725000D3*
X3085782Y1125131D2*
D17*
X3520005D1*
X3054706Y1100262D2*
X3520005D1*
X3023631Y1075394D2*
X3520005D1*
X2992520Y1050525D2*
X3520005D1*
X2961444Y1025656D2*
X3520005D1*
X2937509Y1000787D2*
X3520005D1*
X2937509Y975919D2*
X3520005D1*
X2937509Y951050D2*
X3520005D1*
X2937509Y926181D2*
X3520005D1*
X2937509Y901312D2*
X3520005D1*
X2945726Y876444D2*
X3520005D1*
X2984087Y851575D2*
X3520005D1*
X3022411Y826706D2*
X3520005D1*
X3060735Y801837D2*
X3520005D1*
X3099096Y776969D2*
X3520005D1*
X3137420Y752100D2*
X3520005D1*
X3212812Y741354D2*
X3303854D1*
Y737514D1*
X3522522Y737500D1*
X3522490Y1149976D1*
X3114391Y1150000D1*
X2935018Y1006514D1*
X2934991Y881773D1*
X3157462Y737486D1*
X3203655Y737500D1*
X3203626Y741354D1*
X3212812D1*
X681259Y1200131D2*
X869243D1*
X681259Y1175262D2*
X898094D1*
X681259Y1150394D2*
X926980D1*
X681259Y1125525D2*
X955867D1*
X681259Y1100656D2*
X984755D1*
X681259Y1075787D2*
X1013642D1*
X681259Y1050919D2*
X1042528D1*
X681259Y1026050D2*
X1057492D1*
X681259Y1001181D2*
X1057492D1*
X681259Y976312D2*
X1057492D1*
X681259Y951444D2*
X1057492D1*
X681259Y926575D2*
X1057492D1*
X681259Y901706D2*
X1029000D1*
X681259Y876837D2*
X973020D1*
X681259Y851969D2*
X941119D1*
X681259Y827100D2*
X928201D1*
X681259Y802231D2*
X920738D1*
X681259Y777362D2*
X910080D1*
X681259Y752493D2*
X899421D1*
X681259Y727625D2*
X888764D1*
X681259Y702756D2*
X878106D1*
X681259Y677887D2*
X867449D1*
X845357Y653018D2*
X856791D1*
X928101Y813566D2*
X929723Y823419D1*
X933290Y834392D1*
X938529Y844675D1*
X945311Y854010D1*
X949413Y862909D1*
X951260Y865196D1*
X953591Y866987D1*
X1030466Y901251D1*
X1060010Y914382D1*
X1059991Y1038020D1*
X842856Y1224996D1*
X678727Y1225000D1*
X678740Y673568D1*
X858466Y651070D1*
X928043Y813440D1*
X156259Y862631D2*
X312055D1*
X156259Y837762D2*
X319627D1*
X156259Y812894D2*
X327198D1*
X156259Y788025D2*
X334770D1*
X156259Y763156D2*
X342306D1*
X156259Y738287D2*
X349877D1*
X156259Y713419D2*
X357449D1*
X156259Y688550D2*
X365020D1*
X156259Y663681D2*
X372592D1*
X156259Y638812D2*
X380163D1*
X170396Y613944D2*
X387735D1*
X192609Y589075D2*
X402375D1*
X214822Y564206D2*
X419780D1*
X237070Y539337D2*
X437184D1*
X259282Y514469D2*
X454587D1*
X281493Y489600D2*
X472026D1*
X303706Y464731D2*
X489430D1*
X325954Y439862D2*
X506835D1*
X348167Y414993D2*
X521224D1*
X370379Y390125D2*
X524525D1*
X392627Y365256D2*
X527862D1*
X291205Y887500D2*
X153768D1*
X153740Y629802D1*
X409319Y343766D1*
X533247Y343749D1*
X523001Y420335D1*
X392504Y607022D1*
X389108Y617648D1*
X306975Y887513D1*
X291236Y887500D1*
X156259Y1212631D2*
X417268D1*
X156259Y1187762D2*
X425844D1*
X156259Y1162894D2*
X434385D1*
X156259Y1138025D2*
X442961D1*
X156259Y1113156D2*
X451501D1*
X156259Y1088287D2*
X460077D1*
X156259Y1063419D2*
X468618D1*
X156259Y1038550D2*
X477159D1*
X156259Y1013681D2*
X485735D1*
X156259Y988812D2*
X494276D1*
X156259Y963944D2*
X502852D1*
X156259Y939075D2*
X511392D1*
X356205Y914206D2*
X519969D1*
X362413Y889337D2*
X528509D1*
X368621Y864469D2*
X537085D1*
X374865Y839600D2*
X545625D1*
X381072Y814731D2*
X554202D1*
X387281Y789862D2*
X562741D1*
X393488Y764993D2*
X571319D1*
X399732Y740125D2*
X579858D1*
X405940Y715256D2*
X588399D1*
X413117Y690387D2*
X596975D1*
X420689Y665518D2*
X605516D1*
X428260Y640650D2*
X614092D1*
X439635Y615781D2*
X629415D1*
X457039Y590912D2*
X645455D1*
X474479Y566043D2*
X661495D1*
X491883Y541175D2*
X677535D1*
X509286Y516306D2*
X693576D1*
X526690Y491437D2*
X709615D1*
X544094Y466568D2*
X725692D1*
X561499Y441699D2*
X738755D1*
X568101Y416831D2*
X738755D1*
X571403Y391962D2*
X738755D1*
X574703Y367093D2*
X738755D1*
X578041Y342224D2*
X618685D1*
X273689Y929248D2*
X319080Y929110D1*
X323600Y928307D1*
X327937Y926807D1*
X330012Y925803D1*
X344045Y924681D1*
X346811Y923690D1*
X349269Y922081D1*
X351283Y919942D1*
X352744Y917391D1*
X355594Y906619D1*
X405739Y706385D1*
X430371Y625451D1*
X560295Y439667D1*
X562277Y435528D1*
X563588Y431129D1*
X574909Y346915D1*
X575891Y339551D1*
X741218Y349285D1*
X741240Y446337D1*
X617276Y638769D1*
X419556Y1213273D1*
X153710Y1236369D1*
X153740Y936766D1*
X273638Y929249D1*
X953987Y412631D2*
X1065252D1*
X916668Y387762D2*
X1083194D1*
X879348Y362894D2*
X1089043D1*
X842064Y338025D2*
X1094892D1*
X804745Y313156D2*
X1089331D1*
X412495Y288287D2*
X1044906D1*
X400008Y263419D2*
X1000517D1*
X400008Y238550D2*
X956093D1*
X400008Y213681D2*
X911703D1*
X400008Y188812D2*
X867280D1*
X400008Y163944D2*
X822891D1*
X999180Y432791D2*
X989727Y433617D1*
X984280Y434504D1*
X783962Y301143D1*
X781165Y300238D1*
X769955Y299715D1*
X397486Y287890D1*
X397490Y149969D1*
X800492Y150000D1*
X1101927Y318811D1*
X1080732Y408832D1*
X999411Y432730D1*
X3103730Y543881D2*
X3519974D1*
X3071865Y519012D2*
X3519974D1*
X3040035Y494143D2*
X3519974D1*
X3008206Y469274D2*
X3519974D1*
X2976377Y444406D2*
X3519974D1*
X2944547Y419537D2*
X3519974D1*
X2943759Y394668D2*
X3519974D1*
X2943759Y369799D2*
X3519974D1*
X2943759Y344930D2*
X3519974D1*
X2943759Y320062D2*
X3519974D1*
X2953734Y295193D2*
X3519974D1*
X2978601Y270324D2*
X3519974D1*
X3003470Y245455D2*
X3519974D1*
X3028337Y220587D2*
X3519974D1*
X3053205Y195718D2*
X3519974D1*
X3078072Y170849D2*
X3519974D1*
X3193727Y145980D2*
X3519974D1*
X3449509Y121112D2*
X3519974D1*
X3278114Y568757D2*
X3272919Y566201D1*
X3265440Y563770D1*
X3257672Y562541D1*
X3249808D1*
X3242041Y563770D1*
X3234562Y566201D1*
X3229366Y568757D1*
X3133051Y568749D1*
X2941235Y418899D1*
X2941240Y305164D1*
X3090660Y155757D1*
X3522467Y113777D1*
X3522490Y568755D1*
X3278167Y568749D1*
D18*
X2109769Y612436D3*
Y722672D3*
X2703740Y793751D3*
Y903987D3*
Y550000D3*
Y660236D3*
D19*
X743110Y550000D3*
D20*
X664370D3*
D21*
X2378740Y112500D3*
D22*
X2278740D3*
X2178740D3*
X2078740D3*
X1978740D3*
D23*
X3001231Y956251D3*
Y656251D3*
Y356251D3*
D24*
X1001231Y656251D3*
Y506251D3*
Y806251D3*
D25*
Y956251D3*
Y356251D3*
D26*
X197491Y1187500D3*
X727806D3*
X197491Y1053642D3*
X727806D3*
D29*
X1261220Y806249D3*
Y866249D3*
D30*
Y836249D3*
D29*
Y456251D3*
Y516251D3*
D30*
Y486251D3*
D29*
X2859991Y481251D3*
Y541251D3*
D30*
Y511251D3*
D33*
X1491240Y331251D3*
X1589665Y134400D3*
X1392815D3*
D26*
X197491Y837500D3*
X727806D3*
X197491Y703642D3*
X727806D3*
D35*
X684990Y387500D3*
Y222146D3*
X468454Y383563D3*
Y218209D3*
X3472491Y200000D3*
X3172491D3*
X3472491Y500000D3*
X3172491D3*
X3472491Y800000D3*
X3172491D3*
X3472491Y1100000D3*
X3172491D3*
D19*
X322491Y256251D3*
D20*
Y334991D3*
D19*
X3222491Y606251D3*
D20*
Y684991D3*
D36*
X3378740Y550000D3*
D37*
Y750000D3*
D39*
X2422236Y556192D3*
Y847530D3*
X1261220Y2165462D2*
D14*
X1196219Y2230463D1*
X1001231D1*
Y2255463D1*
X1261220Y1755463D2*
X1141241D1*
X1053740Y1667962D1*
X1001231D1*
Y1655463D1*
X1261220Y2105462D2*
Y2105463D1*
X1001231D1*
X1261220Y2105462D2*
X1403740D1*
X2078740Y1430462D1*
Y1411713D1*
X1261220Y1815463D2*
X1574990D1*
X1978740Y1411713D1*
X1261220Y1815463D2*
D15*
X1011231D1*
X1001231Y1805463D1*
X3001231Y1955463D2*
D14*
Y1890453D1*
X2951241Y1840463D1*
X2859991D1*
X2794991D1*
X2541240Y1586713D2*
X2266240D1*
X2178740Y1499213D1*
Y1411713D1*
X2859991Y1655463D2*
X3001231D1*
X2278740Y1411713D2*
Y1486713D1*
X2328740Y1536713D1*
X2603740D1*
X2722491Y1655463D1*
X3001231D1*
X2703740Y1849213D2*
D16*
Y1780463D1*
X2859991D1*
X2422236Y1855404D2*
X2428428Y1849213D1*
X2703740D1*
X2109769Y1911648D2*
X2166013Y1855404D1*
X2422236D1*
X2859991Y1780463D2*
X2984991Y1655463D1*
X3001231D1*
X2703740Y2203199D2*
X2948967D1*
X3001231Y2255463D1*
X2422236Y2146743D2*
X2382360D1*
X2438816Y2203199D1*
X2703740D1*
X2109769Y2021885D2*
Y2080381D1*
X2176131Y2146743D1*
X2422236D1*
X2703740Y1959449D2*
D14*
Y2024213D1*
Y2092963D1*
D40*
X2794991Y1840463D3*
X2541240Y1586713D3*
X2703740Y2024213D3*
X3085782Y2424344D2*
D17*
X3520005D1*
X3054706Y2399475D2*
X3520005D1*
X3023631Y2374606D2*
X3520005D1*
X2992520Y2349738D2*
X3520005D1*
X2961444Y2324869D2*
X3520005D1*
X2937509Y2300000D2*
X3520005D1*
X2937509Y2275131D2*
X3520005D1*
X2937509Y2250262D2*
X3520005D1*
X2937509Y2225394D2*
X3520005D1*
X2937509Y2200525D2*
X3520005D1*
X2945726Y2175656D2*
X3520005D1*
X2984087Y2150787D2*
X3520005D1*
X3022411Y2125919D2*
X3520005D1*
X3060735Y2101050D2*
X3520005D1*
X3099096Y2076181D2*
X3520005D1*
X3137420Y2051312D2*
X3520005D1*
X3212812Y2040567D2*
X3303854D1*
Y2036727D1*
X3522522Y2036713D1*
X3522490Y2449189D1*
X3114391Y2449213D1*
X2935018Y2305727D1*
X2934991Y2180986D1*
X3157462Y2036698D1*
X3203655Y2036713D1*
X3203626Y2040567D1*
X3212812D1*
X681259Y2499344D2*
X869243D1*
X681259Y2474475D2*
X898094D1*
X681259Y2449606D2*
X926980D1*
X681259Y2424738D2*
X955867D1*
X681259Y2399869D2*
X984755D1*
X681259Y2375000D2*
X1013642D1*
X681259Y2350131D2*
X1042528D1*
X681259Y2325262D2*
X1057492D1*
X681259Y2300394D2*
X1057492D1*
X681259Y2275525D2*
X1057492D1*
X681259Y2250656D2*
X1057492D1*
X681259Y2225787D2*
X1057492D1*
X681259Y2200919D2*
X1029000D1*
X681259Y2176050D2*
X973020D1*
X681259Y2151181D2*
X941119D1*
X681259Y2126312D2*
X928201D1*
X681259Y2101444D2*
X920738D1*
X681259Y2076575D2*
X910080D1*
X681259Y2051706D2*
X899421D1*
X681259Y2026837D2*
X888764D1*
X681259Y2001969D2*
X878106D1*
X681259Y1977100D2*
X867449D1*
X845357Y1952231D2*
X856791D1*
X928101Y2112778D2*
X929723Y2122631D1*
X933290Y2133605D1*
X938529Y2143887D1*
X945311Y2153223D1*
X949413Y2162122D1*
X951260Y2164408D1*
X953591Y2166199D1*
X1030466Y2200463D1*
X1060010Y2213594D1*
X1059991Y2337232D1*
X842856Y2524209D1*
X678727Y2524213D1*
X678740Y1972781D1*
X858466Y1950282D1*
X928043Y2112652D1*
X156259Y2161844D2*
X312055D1*
X156259Y2136975D2*
X319627D1*
X156259Y2112106D2*
X327198D1*
X156259Y2087238D2*
X334770D1*
X156259Y2062369D2*
X342306D1*
X156259Y2037500D2*
X349877D1*
X156259Y2012631D2*
X357449D1*
X156259Y1987762D2*
X365020D1*
X156259Y1962894D2*
X372592D1*
X156259Y1938025D2*
X380163D1*
X170396Y1913156D2*
X387735D1*
X192609Y1888287D2*
X402375D1*
X214822Y1863419D2*
X419780D1*
X237070Y1838550D2*
X437184D1*
X259282Y1813681D2*
X454587D1*
X281493Y1788812D2*
X472026D1*
X303706Y1763944D2*
X489430D1*
X325954Y1739075D2*
X506835D1*
X348167Y1714206D2*
X521224D1*
X370379Y1689337D2*
X524525D1*
X392627Y1664469D2*
X527862D1*
X291205Y2186713D2*
X153768D1*
X153740Y1929014D1*
X409319Y1642979D1*
X533247Y1642962D1*
X523001Y1719547D1*
X392504Y1906235D1*
X389108Y1916861D1*
X306975Y2186726D1*
X291236Y2186713D1*
X156259Y2511844D2*
X417268D1*
X156259Y2486975D2*
X425844D1*
X156259Y2462106D2*
X434385D1*
X156259Y2437238D2*
X442961D1*
X156259Y2412369D2*
X451501D1*
X156259Y2387500D2*
X460077D1*
X156259Y2362631D2*
X468618D1*
X156259Y2337762D2*
X477159D1*
X156259Y2312894D2*
X485735D1*
X156259Y2288025D2*
X494276D1*
X156259Y2263156D2*
X502852D1*
X156259Y2238287D2*
X511392D1*
X356205Y2213419D2*
X519969D1*
X362413Y2188550D2*
X528509D1*
X368621Y2163681D2*
X537085D1*
X374865Y2138812D2*
X545625D1*
X381072Y2113944D2*
X554202D1*
X387281Y2089075D2*
X562741D1*
X393488Y2064206D2*
X571319D1*
X399732Y2039337D2*
X579858D1*
X405940Y2014469D2*
X588399D1*
X413117Y1989600D2*
X596975D1*
X420689Y1964731D2*
X605516D1*
X428260Y1939862D2*
X614092D1*
X439635Y1914993D2*
X629415D1*
X457039Y1890125D2*
X645455D1*
X474479Y1865256D2*
X661495D1*
X491883Y1840387D2*
X677535D1*
X509286Y1815518D2*
X693576D1*
X526690Y1790650D2*
X709615D1*
X544094Y1765781D2*
X725692D1*
X561499Y1740912D2*
X738755D1*
X568101Y1716043D2*
X738755D1*
X571403Y1691175D2*
X738755D1*
X574703Y1666306D2*
X738755D1*
X578041Y1641437D2*
X618685D1*
X273689Y2228461D2*
X319080Y2228323D1*
X323600Y2227520D1*
X327937Y2226020D1*
X330012Y2225016D1*
X344045Y2223894D1*
X346811Y2222903D1*
X349269Y2221294D1*
X351283Y2219155D1*
X352744Y2216604D1*
X355594Y2205832D1*
X405739Y2005597D1*
X430371Y1924664D1*
X560295Y1738879D1*
X562277Y1734740D1*
X563588Y1730341D1*
X574909Y1646127D1*
X575891Y1638764D1*
X741218Y1648497D1*
X741240Y1745550D1*
X617276Y1937982D1*
X419556Y2512486D1*
X153710Y2535581D1*
X153740Y2235979D1*
X273638Y2228462D1*
X953987Y1711844D2*
X1065252D1*
X916668Y1686975D2*
X1083194D1*
X879348Y1662106D2*
X1089043D1*
X842064Y1637238D2*
X1094892D1*
X804745Y1612369D2*
X1089331D1*
X412495Y1587500D2*
X1044906D1*
X400008Y1562631D2*
X1000517D1*
X400008Y1537762D2*
X956093D1*
X400008Y1512894D2*
X911703D1*
X400008Y1488025D2*
X867280D1*
X400008Y1463156D2*
X822891D1*
X999180Y1732004D2*
X989727Y1732829D1*
X984280Y1733717D1*
X783962Y1600356D1*
X781165Y1599450D1*
X769955Y1598928D1*
X397486Y1587102D1*
X397490Y1449181D1*
X800492Y1449213D1*
X1101927Y1618024D1*
X1080732Y1708045D1*
X999411Y1731942D1*
X3103730Y1843093D2*
X3519974D1*
X3071865Y1818224D2*
X3519974D1*
X3040035Y1793356D2*
X3519974D1*
X3008206Y1768487D2*
X3519974D1*
X2976377Y1743618D2*
X3519974D1*
X2944547Y1718749D2*
X3519974D1*
X2943759Y1693881D2*
X3519974D1*
X2943759Y1669012D2*
X3519974D1*
X2943759Y1644143D2*
X3519974D1*
X2943759Y1619274D2*
X3519974D1*
X2953734Y1594406D2*
X3519974D1*
X2978601Y1569537D2*
X3519974D1*
X3003470Y1544668D2*
X3519974D1*
X3028337Y1519799D2*
X3519974D1*
X3053205Y1494930D2*
X3519974D1*
X3078072Y1470062D2*
X3519974D1*
X3193727Y1445193D2*
X3519974D1*
X3449509Y1420324D2*
X3519974D1*
X3278114Y1867970D2*
X3272919Y1865413D1*
X3265440Y1862983D1*
X3257672Y1861753D1*
X3249808D1*
X3242041Y1862983D1*
X3234562Y1865413D1*
X3229366Y1867970D1*
X3133051Y1867962D1*
X2941235Y1718112D1*
X2941240Y1604377D1*
X3090660Y1454970D1*
X3522467Y1412990D1*
X3522490Y1867967D1*
X3278167Y1867962D1*
D18*
X2109769Y1911648D3*
Y2021885D3*
X2703740Y2092963D3*
Y2203199D3*
Y1849213D3*
Y1959449D3*
D19*
X743110Y1849213D3*
D20*
X664370D3*
D21*
X2378740Y1411713D3*
D22*
X2278740D3*
X2178740D3*
X2078740D3*
X1978740D3*
D23*
X3001231Y2255463D3*
Y1955463D3*
Y1655463D3*
D24*
X1001231Y1955463D3*
Y1805463D3*
Y2105463D3*
D25*
Y2255463D3*
Y1655463D3*
D26*
X197491Y2486713D3*
X727806D3*
X197491Y2352854D3*
X727806D3*
D29*
X1261220Y2105462D3*
Y2165462D3*
D30*
Y2135462D3*
D29*
Y1755463D3*
Y1815463D3*
D30*
Y1785463D3*
D29*
X2859991Y1780463D3*
Y1840463D3*
D30*
Y1810463D3*
D33*
X1491240Y1630463D3*
X1589665Y1433613D3*
X1392815D3*
D26*
X197491Y2136713D3*
X727806D3*
X197491Y2002854D3*
X727806D3*
D35*
X684990Y1686713D3*
Y1521358D3*
X468454Y1682776D3*
Y1517421D3*
X3472491Y1499213D3*
X3172491D3*
X3472491Y1799213D3*
X3172491D3*
X3472491Y2099213D3*
X3172491D3*
X3472491Y2399213D3*
X3172491D3*
D19*
X322491Y1555463D3*
D20*
Y1634203D3*
D19*
X3222491Y1905463D3*
D20*
Y1984203D3*
D36*
X3378740Y1849213D3*
D37*
Y2049213D3*
D39*
X2422236Y1855404D3*
Y2146743D3*
X1261220Y3464675D2*
D14*
X1196219Y3529676D1*
X1001231D1*
Y3554676D1*
X1261220Y3054676D2*
X1141241D1*
X1053740Y2967175D1*
X1001231D1*
Y2954676D1*
X1261220Y3404675D2*
Y3404676D1*
X1001231D1*
X1261220Y3404675D2*
X1403740D1*
X2078740Y2729675D1*
Y2710925D1*
X1261220Y3114676D2*
X1574990D1*
X1978740Y2710925D1*
X1261220Y3114676D2*
D15*
X1011231D1*
X1001231Y3104676D1*
X3001231Y3254676D2*
D14*
Y3189665D1*
X2951241Y3139676D1*
X2859991D1*
X2794991D1*
X2541240Y2885925D2*
X2266240D1*
X2178740Y2798425D1*
Y2710925D1*
X2859991Y2954676D2*
X3001231D1*
X2278740Y2710925D2*
Y2785925D1*
X2328740Y2835925D1*
X2603740D1*
X2722491Y2954676D1*
X3001231D1*
X2703740Y3148425D2*
D16*
Y3079676D1*
X2859991D1*
X2422236Y3154617D2*
X2428428Y3148425D1*
X2703740D1*
X2109769Y3210861D2*
X2166013Y3154617D1*
X2422236D1*
X2859991Y3079676D2*
X2984991Y2954676D1*
X3001231D1*
X2703740Y3502412D2*
X2948967D1*
X3001231Y3554676D1*
X2422236Y3445955D2*
X2382360D1*
X2438816Y3502412D1*
X2703740D1*
X2109769Y3321097D2*
Y3379593D1*
X2176131Y3445955D1*
X2422236D1*
X2703740Y3258661D2*
D14*
Y3323425D1*
Y3392176D1*
D40*
X2794991Y3139676D3*
X2541240Y2885925D3*
X2703740Y3323425D3*
X3085782Y3723556D2*
D17*
X3520005D1*
X3054706Y3698688D2*
X3520005D1*
X3023631Y3673819D2*
X3520005D1*
X2992520Y3648950D2*
X3520005D1*
X2961444Y3624081D2*
X3520005D1*
X2937509Y3599213D2*
X3520005D1*
X2937509Y3574344D2*
X3520005D1*
X2937509Y3549475D2*
X3520005D1*
X2937509Y3524606D2*
X3520005D1*
X2937509Y3499738D2*
X3520005D1*
X2945726Y3474869D2*
X3520005D1*
X2984087Y3450000D2*
X3520005D1*
X3022411Y3425131D2*
X3520005D1*
X3060735Y3400262D2*
X3520005D1*
X3099096Y3375394D2*
X3520005D1*
X3137420Y3350525D2*
X3520005D1*
X3212812Y3339780D2*
X3303854D1*
Y3335940D1*
X3522522Y3335925D1*
X3522490Y3748402D1*
X3114391Y3748425D1*
X2935018Y3604940D1*
X2934991Y3480198D1*
X3157462Y3335911D1*
X3203655Y3335925D1*
X3203626Y3339780D1*
X3212812D1*
X681259Y3798556D2*
X869243D1*
X681259Y3773688D2*
X898094D1*
X681259Y3748819D2*
X926980D1*
X681259Y3723950D2*
X955867D1*
X681259Y3699081D2*
X984755D1*
X681259Y3674213D2*
X1013642D1*
X681259Y3649344D2*
X1042528D1*
X681259Y3624475D2*
X1057492D1*
X681259Y3599606D2*
X1057492D1*
X681259Y3574738D2*
X1057492D1*
X681259Y3549869D2*
X1057492D1*
X681259Y3525000D2*
X1057492D1*
X681259Y3500131D2*
X1029000D1*
X681259Y3475262D2*
X973020D1*
X681259Y3450394D2*
X941119D1*
X681259Y3425525D2*
X928201D1*
X681259Y3400656D2*
X920738D1*
X681259Y3375787D2*
X910080D1*
X681259Y3350919D2*
X899421D1*
X681259Y3326050D2*
X888764D1*
X681259Y3301181D2*
X878106D1*
X681259Y3276312D2*
X867449D1*
X845357Y3251444D2*
X856791D1*
X928101Y3411991D2*
X929723Y3421844D1*
X933290Y3432818D1*
X938529Y3443100D1*
X945311Y3452436D1*
X949413Y3461335D1*
X951260Y3463621D1*
X953591Y3465412D1*
X1030466Y3499676D1*
X1060010Y3512807D1*
X1059991Y3636445D1*
X842856Y3823421D1*
X678727Y3823425D1*
X678740Y3271993D1*
X858466Y3249495D1*
X928043Y3411865D1*
X156259Y3461056D2*
X312055D1*
X156259Y3436188D2*
X319627D1*
X156259Y3411319D2*
X327198D1*
X156259Y3386450D2*
X334770D1*
X156259Y3361581D2*
X342306D1*
X156259Y3336713D2*
X349877D1*
X156259Y3311844D2*
X357449D1*
X156259Y3286975D2*
X365020D1*
X156259Y3262106D2*
X372592D1*
X156259Y3237238D2*
X380163D1*
X170396Y3212369D2*
X387735D1*
X192609Y3187500D2*
X402375D1*
X214822Y3162631D2*
X419780D1*
X237070Y3137762D2*
X437184D1*
X259282Y3112894D2*
X454587D1*
X281493Y3088025D2*
X472026D1*
X303706Y3063156D2*
X489430D1*
X325954Y3038287D2*
X506835D1*
X348167Y3013419D2*
X521224D1*
X370379Y2988550D2*
X524525D1*
X392627Y2963681D2*
X527862D1*
X291205Y3485925D2*
X153768D1*
X153740Y3228227D1*
X409319Y2942192D1*
X533247Y2942175D1*
X523001Y3018760D1*
X392504Y3205448D1*
X389108Y3216073D1*
X306975Y3485938D1*
X291236Y3485925D1*
X156259Y3811056D2*
X417268D1*
X156259Y3786188D2*
X425844D1*
X156259Y3761319D2*
X434385D1*
X156259Y3736450D2*
X442961D1*
X156259Y3711581D2*
X451501D1*
X156259Y3686713D2*
X460077D1*
X156259Y3661844D2*
X468618D1*
X156259Y3636975D2*
X477159D1*
X156259Y3612106D2*
X485735D1*
X156259Y3587238D2*
X494276D1*
X156259Y3562369D2*
X502852D1*
X156259Y3537500D2*
X511392D1*
X356205Y3512631D2*
X519969D1*
X362413Y3487762D2*
X528509D1*
X368621Y3462894D2*
X537085D1*
X374865Y3438025D2*
X545625D1*
X381072Y3413156D2*
X554202D1*
X387281Y3388287D2*
X562741D1*
X393488Y3363419D2*
X571319D1*
X399732Y3338550D2*
X579858D1*
X405940Y3313681D2*
X588399D1*
X413117Y3288812D2*
X596975D1*
X420689Y3263944D2*
X605516D1*
X428260Y3239075D2*
X614092D1*
X439635Y3214206D2*
X629415D1*
X457039Y3189337D2*
X645455D1*
X474479Y3164469D2*
X661495D1*
X491883Y3139600D2*
X677535D1*
X509286Y3114731D2*
X693576D1*
X526690Y3089862D2*
X709615D1*
X544094Y3064993D2*
X725692D1*
X561499Y3040125D2*
X738755D1*
X568101Y3015256D2*
X738755D1*
X571403Y2990387D2*
X738755D1*
X574703Y2965518D2*
X738755D1*
X578041Y2940650D2*
X618685D1*
X273689Y3527673D2*
X319080Y3527535D1*
X323600Y3526732D1*
X327937Y3525232D1*
X330012Y3524228D1*
X344045Y3523106D1*
X346811Y3522115D1*
X349269Y3520507D1*
X351283Y3518367D1*
X352744Y3515816D1*
X355594Y3505045D1*
X405739Y3304810D1*
X430371Y3223877D1*
X560295Y3038092D1*
X562277Y3033953D1*
X563588Y3029554D1*
X574909Y2945340D1*
X575891Y2937976D1*
X741218Y2947710D1*
X741240Y3044762D1*
X617276Y3237194D1*
X419556Y3811698D1*
X153710Y3834794D1*
X153740Y3535192D1*
X273638Y3527675D1*
X953987Y3011056D2*
X1065252D1*
X916668Y2986188D2*
X1083194D1*
X879348Y2961319D2*
X1089043D1*
X842064Y2936450D2*
X1094892D1*
X804745Y2911581D2*
X1089331D1*
X412495Y2886713D2*
X1044906D1*
X400008Y2861844D2*
X1000517D1*
X400008Y2836975D2*
X956093D1*
X400008Y2812106D2*
X911703D1*
X400008Y2787238D2*
X867280D1*
X400008Y2762369D2*
X822891D1*
X999180Y3031217D2*
X989727Y3032042D1*
X984280Y3032929D1*
X783962Y2899568D1*
X781165Y2898663D1*
X769955Y2898140D1*
X397486Y2886315D1*
X397490Y2748394D1*
X800492Y2748425D1*
X1101927Y2917236D1*
X1080732Y3007257D1*
X999411Y3031155D1*
X3103730Y3142306D2*
X3519974D1*
X3071865Y3117437D2*
X3519974D1*
X3040035Y3092568D2*
X3519974D1*
X3008206Y3067699D2*
X3519974D1*
X2976377Y3042831D2*
X3519974D1*
X2944547Y3017962D2*
X3519974D1*
X2943759Y2993093D2*
X3519974D1*
X2943759Y2968224D2*
X3519974D1*
X2943759Y2943356D2*
X3519974D1*
X2943759Y2918487D2*
X3519974D1*
X2953734Y2893618D2*
X3519974D1*
X2978601Y2868749D2*
X3519974D1*
X3003470Y2843881D2*
X3519974D1*
X3028337Y2819012D2*
X3519974D1*
X3053205Y2794143D2*
X3519974D1*
X3078072Y2769274D2*
X3519974D1*
X3193727Y2744406D2*
X3519974D1*
X3449509Y2719537D2*
X3519974D1*
X3278114Y3167182D2*
X3272919Y3164626D1*
X3265440Y3162196D1*
X3257672Y3160966D1*
X3249808D1*
X3242041Y3162196D1*
X3234562Y3164626D1*
X3229366Y3167182D1*
X3133051Y3167175D1*
X2941235Y3017324D1*
X2941240Y2903589D1*
X3090660Y2754182D1*
X3522467Y2712202D1*
X3522490Y3167180D1*
X3278167Y3167175D1*
D18*
X2109769Y3210861D3*
Y3321097D3*
X2703740Y3392176D3*
Y3502412D3*
Y3148425D3*
Y3258661D3*
D19*
X743110Y3148425D3*
D20*
X664370D3*
D21*
X2378740Y2710925D3*
D22*
X2278740D3*
X2178740D3*
X2078740D3*
X1978740D3*
D23*
X3001231Y3554676D3*
Y3254676D3*
Y2954676D3*
D24*
X1001231Y3254676D3*
Y3104676D3*
Y3404676D3*
D25*
Y3554676D3*
Y2954676D3*
D26*
X197491Y3785925D3*
X727806D3*
X197491Y3652067D3*
X727806D3*
D29*
X1261220Y3404675D3*
Y3464675D3*
D30*
Y3434675D3*
D29*
Y3054676D3*
Y3114676D3*
D30*
Y3084676D3*
D29*
X2859991Y3079676D3*
Y3139676D3*
D30*
Y3109676D3*
D33*
X1491240Y2929676D3*
X1589665Y2732825D3*
X1392815D3*
D26*
X197491Y3435925D3*
X727806D3*
X197491Y3302067D3*
X727806D3*
D35*
X684990Y2985925D3*
Y2820571D3*
X468454Y2981988D3*
Y2816634D3*
X3472491Y2798425D3*
X3172491D3*
X3472491Y3098425D3*
X3172491D3*
X3472491Y3398425D3*
X3172491D3*
X3472491Y3698425D3*
X3172491D3*
D19*
X322491Y2854676D3*
D20*
Y2933416D3*
D19*
X3222491Y3204676D3*
D20*
Y3283416D3*
D36*
X3378740Y3148425D3*
D37*
Y3348425D3*
D39*
X2422236Y3154617D3*
Y3445955D3*
M02*
