G04 DipTrace 3.2.0.1*
G04 TopMask.GTS*
%MOIN*%
G04 #@! TF.FileFunction,Soldermask,Top*
G04 #@! TF.Part,Single*
%ADD29R,0.063X0.046*%
%ADD30R,0.008X0.025*%
%ADD33C,0.066929*%
%ADD35C,0.11811*%
%ADD46C,0.070866*%
%ADD48R,0.07874X0.181102*%
%ADD50R,0.070866X0.070866*%
%ADD51R,0.055118X0.055118*%
%ADD52C,0.055118*%
%ADD53C,0.125984*%
%ADD63O,0.122047X0.106299*%
%ADD65C,0.157874*%
%ADD67C,0.096457*%
%ADD69C,0.125984*%
%ADD71C,0.074803*%
%ADD73R,0.074803X0.074803*%
%ADD76R,0.07874X0.070866*%
%FSLAX26Y26*%
G04*
G70*
G90*
G75*
G01*
G04 TopMask*
%LPD*%
D76*
X2109769Y612436D3*
Y722672D3*
X2703740Y793751D3*
Y903987D3*
Y550000D3*
Y660236D3*
D52*
X743110Y550000D3*
D51*
X664370D3*
D73*
X2378740Y112500D3*
D71*
X2278740D3*
X2178740D3*
X2078740D3*
X1978740D3*
D69*
X3001231Y956251D3*
Y656251D3*
Y356251D3*
D67*
X1001231Y656251D3*
Y506251D3*
Y806251D3*
D65*
Y956251D3*
Y356251D3*
D63*
X197491Y1187500D3*
X727806D3*
X197491Y1053642D3*
X727806D3*
G36*
X1297220Y833246D2*
X1225220D1*
Y839252D1*
X1297220D1*
Y833246D1*
G37*
D29*
X1261220Y806249D3*
Y866249D3*
D30*
Y836249D3*
G36*
X1297220Y483248D2*
X1225220D1*
Y489254D1*
X1297220D1*
Y483248D1*
G37*
D29*
X1261220Y456251D3*
Y516251D3*
D30*
Y486251D3*
G36*
X2895991Y508248D2*
X2823991D1*
Y514254D1*
X2895991D1*
Y508248D1*
G37*
D29*
X2859991Y481251D3*
Y541251D3*
D30*
Y511251D3*
D33*
X1491240Y331251D3*
X1589665Y134400D3*
X1392815D3*
D63*
X197491Y837500D3*
X727806D3*
X197491Y703642D3*
X727806D3*
D53*
X684990Y387500D3*
Y222146D3*
X468454Y383563D3*
Y218209D3*
D35*
X180906Y300886D3*
D53*
X3472491Y200000D3*
X3172491D3*
X3472491Y500000D3*
X3172491D3*
X3472491Y800000D3*
X3172491D3*
X3472491Y1100000D3*
X3172491D3*
D52*
X322491Y256251D3*
D51*
Y334991D3*
D52*
X3222491Y606251D3*
D51*
Y684991D3*
D46*
X3378740Y550000D3*
D50*
Y750000D3*
D48*
X2422236Y556192D3*
Y847530D3*
D76*
X2109769Y1911648D3*
Y2021885D3*
X2703740Y2092963D3*
Y2203199D3*
Y1849213D3*
Y1959449D3*
D52*
X743110Y1849213D3*
D51*
X664370D3*
D73*
X2378740Y1411713D3*
D71*
X2278740D3*
X2178740D3*
X2078740D3*
X1978740D3*
D69*
X3001231Y2255463D3*
Y1955463D3*
Y1655463D3*
D67*
X1001231Y1955463D3*
Y1805463D3*
Y2105463D3*
D65*
Y2255463D3*
Y1655463D3*
D63*
X197491Y2486713D3*
X727806D3*
X197491Y2352854D3*
X727806D3*
G36*
X1297220Y2132459D2*
X1225220D1*
Y2138465D1*
X1297220D1*
Y2132459D1*
G37*
D29*
X1261220Y2105462D3*
Y2165462D3*
D30*
Y2135462D3*
G36*
X1297220Y1782460D2*
X1225220D1*
Y1788466D1*
X1297220D1*
Y1782460D1*
G37*
D29*
X1261220Y1755463D3*
Y1815463D3*
D30*
Y1785463D3*
G36*
X2895991Y1807460D2*
X2823991D1*
Y1813466D1*
X2895991D1*
Y1807460D1*
G37*
D29*
X2859991Y1780463D3*
Y1840463D3*
D30*
Y1810463D3*
D33*
X1491240Y1630463D3*
X1589665Y1433613D3*
X1392815D3*
D63*
X197491Y2136713D3*
X727806D3*
X197491Y2002854D3*
X727806D3*
D53*
X684990Y1686713D3*
Y1521358D3*
X468454Y1682776D3*
Y1517421D3*
D35*
X180906Y1600098D3*
D53*
X3472491Y1499213D3*
X3172491D3*
X3472491Y1799213D3*
X3172491D3*
X3472491Y2099213D3*
X3172491D3*
X3472491Y2399213D3*
X3172491D3*
D52*
X322491Y1555463D3*
D51*
Y1634203D3*
D52*
X3222491Y1905463D3*
D51*
Y1984203D3*
D46*
X3378740Y1849213D3*
D50*
Y2049213D3*
D48*
X2422236Y1855404D3*
Y2146743D3*
D76*
X2109769Y3210861D3*
Y3321097D3*
X2703740Y3392176D3*
Y3502412D3*
Y3148425D3*
Y3258661D3*
D52*
X743110Y3148425D3*
D51*
X664370D3*
D73*
X2378740Y2710925D3*
D71*
X2278740D3*
X2178740D3*
X2078740D3*
X1978740D3*
D69*
X3001231Y3554676D3*
Y3254676D3*
Y2954676D3*
D67*
X1001231Y3254676D3*
Y3104676D3*
Y3404676D3*
D65*
Y3554676D3*
Y2954676D3*
D63*
X197491Y3785925D3*
X727806D3*
X197491Y3652067D3*
X727806D3*
G36*
X1297220Y3431672D2*
X1225220D1*
Y3437678D1*
X1297220D1*
Y3431672D1*
G37*
D29*
X1261220Y3404675D3*
Y3464675D3*
D30*
Y3434675D3*
G36*
X1297220Y3081673D2*
X1225220D1*
Y3087679D1*
X1297220D1*
Y3081673D1*
G37*
D29*
X1261220Y3054676D3*
Y3114676D3*
D30*
Y3084676D3*
G36*
X2895991Y3106673D2*
X2823991D1*
Y3112679D1*
X2895991D1*
Y3106673D1*
G37*
D29*
X2859991Y3079676D3*
Y3139676D3*
D30*
Y3109676D3*
D33*
X1491240Y2929676D3*
X1589665Y2732825D3*
X1392815D3*
D63*
X197491Y3435925D3*
X727806D3*
X197491Y3302067D3*
X727806D3*
D53*
X684990Y2985925D3*
Y2820571D3*
X468454Y2981988D3*
Y2816634D3*
D35*
X180906Y2899311D3*
D53*
X3472491Y2798425D3*
X3172491D3*
X3472491Y3098425D3*
X3172491D3*
X3472491Y3398425D3*
X3172491D3*
X3472491Y3698425D3*
X3172491D3*
D52*
X322491Y2854676D3*
D51*
Y2933416D3*
D52*
X3222491Y3204676D3*
D51*
Y3283416D3*
D46*
X3378740Y3148425D3*
D50*
Y3348425D3*
D48*
X2422236Y3154617D3*
Y3445955D3*
M02*
